<svg xmlns="http://www.w3.org/2000/svg" viewBox="0 0 634.05 22.78"><defs><style>.cls-1{isolation:isolate;}.cls-2{mix-blend-mode:color-dodge;}.cls-3{fill:#fff;}</style></defs><g class="cls-1"><g id="Capa_2" data-name="Capa 2"><g id="Capa_1-2" data-name="Capa 1"><g class="cls-2"><path class="cls-3" d="M5.8,13c0,2.95.1,8.23.14,8.92H0c0-1.28.07-8.19.07-9V9.76c0-.52-.07-8-.1-8.68H5.94c0,.52-.14,5.17-.14,8.71Z"/><path class="cls-3" d="M20.32,8.93c0-.63,0-7-.14-7.85a97.05,97.05,0,0,1,10.24.34c9.1,1,10.21,5.46,10.21,7.71,0,9.52-11,13.1-20.49,12.92.11-1.35.18-8.68.18-9.48Zm5.62,8.82C31,17.29,34.52,14.2,34.52,10c0-4-3.72-5.14-8.58-5.07Z"/><path class="cls-3" d="M65.77,22.23c-1.18,0-11.8-.32-13.16-.32.07-1.56.07-7.88.07-8.57V9.41c0-.48-.07-7.6-.07-8.33,1.5,0,11.12-.42,12.54-.52l.14,4c-1.25,0-6.5.18-7.05.18v5c.62,0,4.41-.14,6-.28l.07,4c-.91,0-5.39-.1-6.08-.1v4.72c.8,0,5.35.07,7.43-.07Z"/><path class="cls-3" d="M75.08,20.25C76.29,18.16,85,3.16,87.2,0h.42C91,4.9,98.9,17.64,100.5,19.9l-4.86,2.85c-.76-1.32-3.09-5.25-3.27-5.56l-10,.42c-.25.48-2,3.92-2.54,5.17Zm15.52-6.6c-.66-1.29-2.77-5.18-3.3-6.11-.62,1.14-2.64,5.21-3.23,6.39Z"/><path class="cls-3" d="M110.29,18.16c3.3-.17,7-.83,7-2.67,0-1-.77-1.46-3.23-2.61s-4.66-2.5-4.66-5c0-3.51,5-6.81,11.85-7.4L122,4.72c-3.4.11-6.56.66-6.56,2.43,0,1.08,1.56,1.57,3.3,2.4,2,.94,4.65,2.12,4.65,4.86,0,3.41-3.89,7.09-12.33,8.06Z"/><path class="cls-3" d="M152,8.93c0-.63,0-7-.13-7.85a97.05,97.05,0,0,1,10.24.34c9.1,1,10.21,5.46,10.21,7.71,0,9.52-11,13.1-20.49,12.92.1-1.35.17-8.68.17-9.48Zm5.63,8.82c5.07-.46,8.58-3.55,8.58-7.75,0-4-3.72-5.14-8.58-5.07Z"/><path class="cls-3" d="M190.06,13c0,2.95.11,8.23.14,8.92h-5.9c0-1.28.07-8.19.07-9V9.76c0-.52-.07-8-.11-8.68h5.94c0,.52-.14,5.17-.14,8.71Z"/><path class="cls-3" d="M221.56,17.33c0,1.15.07,3.75.07,4.27a29.25,29.25,0,0,1-7,.8c-8.51,0-12.54-4-12.54-8.72,0-3.57,3.58-10.48,16.15-13.16l1.11,4.83c-5.42.83-11,3.85-11,8.16,0,2.74,2.43,4.72,6,4.72a8.9,8.9,0,0,0,1.87-.14V14.93c0-.83-.07-1.73-.07-2.43h5.52c0,1.11,0,1.81,0,2.68Z"/><path class="cls-3" d="M254.24,22.57c-2.71-2.25-14.55-11.87-15.35-12.6,0,1.14,0,11.25,0,12.15l-5.38-.21c.21-2.15,1-17.85,1.25-21.42l.38-.11c3.06,2.43,13.89,11.53,15.18,12.64h.07c0-1.59-.07-11,0-12.08l5.28.14c-.17,2.08-.56,9.41-.8,15.14-.1,2.53-.28,5-.31,6.22Z"/><path class="cls-3" d="M265.38,20.25C266.6,18.16,275.32,3.16,277.5,0h.42c3.4,4.9,11.29,17.64,12.88,19.9l-4.86,2.85c-.76-1.32-3.09-5.25-3.26-5.56l-10,.42c-.24.48-1.94,3.92-2.53,5.17Zm15.53-6.6c-.66-1.29-2.78-5.18-3.3-6.11-.63,1.14-2.64,5.21-3.23,6.39Z"/><path class="cls-3" d="M300.6,18.16c3.3-.17,7-.83,7-2.67,0-1-.76-1.46-3.23-2.61-2.32-1.07-4.65-2.5-4.65-5,0-3.51,5-6.81,11.84-7.4l.76,4.27c-3.4.11-6.56.66-6.56,2.43,0,1.08,1.56,1.57,3.3,2.4,2,.94,4.65,2.12,4.65,4.86,0,3.41-3.89,7.09-12.32,8.06Z"/><path class="cls-3" d="M342.34,8.93c0-.63,0-7-.14-7.85a97,97,0,0,1,10.24.34c9.1,1,10.21,5.46,10.21,7.71,0,9.52-11,13.1-20.49,12.92.11-1.35.18-8.68.18-9.48ZM348,17.75c5.07-.46,8.58-3.55,8.58-7.75,0-4-3.71-5.14-8.58-5.07Z"/><path class="cls-3" d="M387.8,22.23c-1.18,0-11.81-.32-13.17-.32.07-1.56.07-7.88.07-8.57V9.41c0-.48-.07-7.6-.07-8.33,1.5,0,11.12-.42,12.54-.52l.14,4c-1.25,0-6.49.18-7.05.18v5c.63,0,4.41-.14,6-.28l.07,4c-.9,0-5.38-.1-6.08-.1v4.72c.8,0,5.35.07,7.43-.07Z"/><path class="cls-3" d="M417,8.93c0-.63,0-7-.14-7.85a97.26,97.26,0,0,1,10.25.34c9.09,1,10.21,5.46,10.21,7.71,0,9.52-11,13.1-20.49,12.92.1-1.35.17-8.68.17-9.48Zm5.63,8.82c5.07-.46,8.57-3.55,8.57-7.75,0-4-3.71-5.14-8.57-5.07Z"/><path class="cls-3" d="M455,13c0,2.95.1,8.23.14,8.92h-5.91c0-1.28.07-8.19.07-9V9.76c0-.52-.07-8-.1-8.68h5.94c0,.52-.14,5.17-.14,8.71Z"/><path class="cls-3" d="M469.37,21.91c.17-1.56.17-7.88.17-8.57V9.41c0-.48-.07-7.6-.1-8.33,2,0,9.9-.32,12.74-.42l.14,4-7.15.14v5.42c.66,0,3.72-.14,6.56-.28l.11,3.92-6.67-.07v2.5c0,.49,0,5.18.07,5.59Z"/><path class="cls-3" d="M499.51,8.23c0,4.76.18,6.84,1.36,8.41a3.86,3.86,0,0,0,3.4,1.73,4.11,4.11,0,0,0,3.58-1.91C509,14.9,509,12.81,509,6.91V5.83c0-2-.14-3.95-.17-5h5.83c0,.66,0,2.74,0,5.07V7.26c0,5.66-.38,9.17-2.75,11.88-1.91,2.18-4.61,3.26-8.09,3.26-2.22,0-5.76-.35-8.09-3.65-1.53-2.15-2.12-4.41-2.12-11.56V5.59c0-1.35,0-3.68,0-4.34h6a42.44,42.44,0,0,0-.18,5Z"/><path class="cls-3" d="M547.47,22.57c-2.71-2.25-14.55-11.87-15.35-12.6,0,1.14,0,11.25,0,12.15l-5.38-.21c.21-2.15,1-17.85,1.25-21.42l.38-.11c3.06,2.43,13.9,11.53,15.18,12.64h.07c0-1.59-.07-11,0-12.08l5.28.14c-.18,2.08-.56,9.41-.8,15.14-.11,2.53-.28,5-.32,6.22Z"/><path class="cls-3" d="M562.19,8.93c0-.63,0-7-.14-7.85a97.15,97.15,0,0,1,10.25.34c9.1,1,10.21,5.46,10.21,7.71,0,9.52-11,13.1-20.49,12.92.1-1.35.17-8.68.17-9.48Zm5.63,8.82c5.07-.46,8.58-3.55,8.58-7.75,0-4-3.72-5.14-8.58-5.07Z"/><path class="cls-3" d="M600.22,13c0,2.95.1,8.23.14,8.92h-5.9c0-1.28.06-8.19.06-9V9.76c0-.52-.06-8-.1-8.68h5.94c0,.52-.14,5.17-.14,8.71Z"/><path class="cls-3" d="M620.33,12.88c0,1.12.07,8.58.14,9H614.7c.11-.69.07-8.61.07-9.23V8.82c0-.9-.07-7.15-.14-7.74a92.2,92.2,0,0,1,9.86.27c4.49.53,7,2.26,7,5,0,2.54-1.6,4.45-4.2,6,.87,1.05,5.87,6,6.74,6.92l-4.69,3.54c-.59-.84-6.91-9.31-7.78-10.59,1.6-.8,3.82-2.3,3.82-4.8,0-1.39-.91-2.78-5.07-2.81Z"/></g></g></g></g></svg>