<svg id="Capa_1" data-name="Capa 1" xmlns="http://www.w3.org/2000/svg" xmlns:xlink="http://www.w3.org/1999/xlink" viewBox="0 0 957.44 800.45"><defs><style>.cls-1{fill:none;}.cls-2{clip-path:url(#clip-path);}.cls-3{fill:#fff;}</style><clipPath id="clip-path"><rect class="cls-1" x="-1.9" y="-0.15" width="958.98" height="805.39"/></clipPath></defs><g class="cls-2"><g id="LINEAS"><path id="_2da_IZQ" data-name="2da IZQ" class="cls-3" d="M109.93-23.35h-1.24l.07,94.79-6.3,7.65v8.48l6.3,8.67V106a3.86,3.86,0,0,0,.52,7.68A3.79,3.79,0,0,0,112,112.5a3.86,3.86,0,0,0-2-6.52V95.83l-6.3-8.67V79.53l6.3-7.65Zm-2.49,131.27a2.58,2.58,0,0,1,1.46-.73h.79a2.6,2.6,0,1,1-2.25.73Z"/><path id="_3ra_IZQ" data-name="3ra IZQ" class="cls-3" d="M93.61,171a3.89,3.89,0,0,0,2.74-1.12,3.83,3.83,0,0,0,1.13-2.73,3.78,3.78,0,0,0-1.12-2.73,3.84,3.84,0,0,0-5.45,0,1.62,1.62,0,0,0-.18.19l-11.4-7.21.14-44L68.3,106.62,68.36-5H67.12l-.06,112.33,11.16,6.77-.13,44,12,7.57a3.69,3.69,0,0,0-.3,1.48A3.86,3.86,0,0,0,93.61,171Zm1.86-2a2.62,2.62,0,0,1-3.7,0,2.64,2.64,0,0,1-.76-1.86,2.55,2.55,0,0,1,.77-1.84,2.59,2.59,0,0,1,1.85-.77,2.62,2.62,0,0,1,1.85.78,2.57,2.57,0,0,1,.77,1.85A2.62,2.62,0,0,1,95.47,169Z"/></g></g></svg>