<svg xmlns="http://www.w3.org/2000/svg" viewBox="0 0 541.11 81.17"><defs><style>.cls-1{fill:#fff;}.cls-2{fill:none;stroke:#fff;stroke-miterlimit:10;stroke-width:1.3px;}</style></defs><g id="Capa_2" data-name="Capa 2"><g id="Capa_1-2" data-name="Capa 1"><g id="LINEAS"><g id="_1er_IZQ" data-name="1er IZQ"><circle id="circulo3" class="cls-1" cx="4.43" cy="76.74" r="4.43"/><rect id="linea_extra-2" data-name="linea extra-2" class="cls-1" x="8.29" y="76.1" width="105.23" height="1.46"/><rect id="linea_extra-1" data-name="linea extra-1" class="cls-1" x="231.11" y="75.68" width="310" height="1.46"/><path id="guereo" class="cls-2" d="M177.53,71l-.13,0h-1a2.32,2.32,0,0,1-.45.06l-.18,0a1.81,1.81,0,0,1-.52-.06h-.05l-.56,0h-.18a15.11,15.11,0,0,1-1.78,0,2.45,2.45,0,0,1-.81,0c-1,0-1.91,0-2.86,0-.13,0-.26-.14-.39-.22.09-.16-.27-3.12-.28-3.38q0-6,0-12c0-.24.21-.47.32-.7s.31-.59.5-1l-.73-.23c-.16-2.9,2.07-6.34,4.12-6.37,3.72,0,5.91,2.25,6,6.34l-.73.24c.18.35.35.67.5,1a2,2,0,0,1,.3.74c0,2.8,0,5.61,0,8.41a48.79,48.79,0,0,1,.22,5.13C178.81,70.07,178.61,71.17,177.53,71ZM112.85,76.9c0-1,0-2.06,0-3.15,0-4.52.08-4.61.1-8.3,0-6.08,0-9.07,0-15.36V48.87c0-.43,0-1.44,0-2.88,0-3.08,0-5.56,0-6.11-.21-1.8.25-3.6,0-5.36-.15-1.08.15-2.1,0-3.14,0-.33-.18-.63-.24-.94s-.48-.84.15-1.26c.24-.16.25-.9.3-1.39.09-.95.13-1.92.21-2.88,0-.14.15-.27.38-.63.16,1.57.29,2.85.43,4.3.23-.63.41-1.17.61-1.69a3.81,3.81,0,0,1,1.58-2.14c.41-.23.67-.91,1-1.41a8.39,8.39,0,0,0,.45-.9l.21.1V19.93l-1-.11a.86.86,0,0,1,0-.16c.3,0,.59-.08.93-.11,0-.41.06-.82.1-1.21h.08c0,.39.06.76.09,1.17l.93.17v.14l-.94.11v2.59l.16-.1c.17.33.31.68.51,1s.45,1,.8,1.22a4.75,4.75,0,0,1,2,3c.09.29.21.56.39,1.07.11-1.54.22-2.85.32-4.16l.29-.05a17.55,17.55,0,0,1,.33,1.73c.06.53,0,1.09,0,1.62s.32,1.2.53,2a8.26,8.26,0,0,0-.28,2.21c.16,1.5-.17,3,0,4.42.06.64.21,1.27.23,1.91a7.78,7.78,0,0,1-.27,1.42l3.55-3.11c2.16-1.93,4.33-3.87,6.51-5.79,1.31-1.17,1.32-1.16,1.17-3.15l-1-.61.9-.39.42-1,.39,1,.91.52-1,.43c-.32,1.64-.21,2,.92,3l9.49,8.44c.21.18.44.34.64.5,0-1.6.09-3.17.1-4.74,0-.44-.14-.86-.16-1.29s.17-.6.15-.89c-.05-.81-.17-1.62-.29-2.43,0-.41-.35-.74.22-1.14.29-.2.32-1.07.37-1.66.09-1,.11-1.95.28-2.94a13.08,13.08,0,0,1,.71,3.92l.45-1.26a4,4,0,0,1,1.79-2.51c.52-.24.35-.33.53-.54,1.23-1.47,1.41-3.81.61-4.33l-.1-.05c-.3-.13-.5-.16-.49-.18s.46.13.77-.05.35-.62.35-1a.58.58,0,0,1,.09.36.61.61,0,0,1-.24.39,3.09,3.09,0,0,0,.72.28,4.18,4.18,0,0,0,.41.08s0,.06,0,.06.12-.1.27-.35a1.32,1.32,0,0,1-.66.47,1.47,1.47,0,0,1-.46.07,17.74,17.74,0,0,0-.1,1.94c0,.28.31.53.46.8s.14.35.23.51c.26.49.44,1.2.81,1.41a5,5,0,0,1,2,3.07s0,.09.05.13c.08.25.16.49.32,1,.12-1.58.23-2.91.35-4.44,1.22,1.65,0,3.88,1.22,5.17a13.52,13.52,0,0,0-.33,2.67c0,.25,0,.49,0,.72,0,1.36-.12,2.71-.07,4.06,0,1,.06,2-.07,3a1.25,1.25,0,0,0,.05.59,16.46,16.46,0,0,0,0,2.72c.06,1,0,1.92,0,2.86.06,2.17-.11,4.32-.06,6.48s0,4.52,0,6.78,0,4.44,0,6.67c0,.23,0,.48,0,.72a3.83,3.83,0,0,0,.23,1.92,1.29,1.29,0,0,0,.89.68,7.39,7.39,0,0,0,1.15.06s0,0,.07,0a.91.91,0,0,0,.82-.76A11.84,11.84,0,0,0,159.9,65a1,1,0,0,0,0-.18.6.6,0,0,0,0-.27v0c0-5.24,0-10.48,0-15.73a10.36,10.36,0,0,0-.54-2.25,1.72,1.72,0,0,1,0-.64c0-.35.25-.8.15-1-.5-1.15.56-2.52-.38-3.6-.46-.52-.23-.62.28-.75a3.63,3.63,0,0,0,1.2-.59,2,2,0,0,0,.35-.3,2.53,2.53,0,0,0,.37-1.42,3.84,3.84,0,0,0-.31-1c.13-.28.76,0,.65-.69a1.89,1.89,0,0,0-.1-.37c-.35-1,.2-2.52.35-3.81,0,0,.05,0,.2-.06,0,.42,0,.83.09,1.22.11.83-.27,1.73.27,2.52.08.1-.19.56-.33.92l.71.17,0,.23a5.37,5.37,0,0,0-.15,1.6,1.18,1.18,0,0,0,.26.54c.15.19.33.37.47.58a3.52,3.52,0,0,0,.62-1.13,3.59,3.59,0,0,0-.06-1.07c0-.24-.07-.47-.09-.73l.48-.17c0-.61.05-1.22.07-1.82l.12-2.79.23-.06a6.8,6.8,0,0,1,.2.84c0,.35.08.7.11,1,.07.59.13,1.19.15,1.78a.8.8,0,0,1-.08.39c-.05.16-.13.33-.2.53.25.1.46.21.63.27h0c-.1.7-.19,1.36-.29,2.11h3.84c0-.53,0-1,.08-1.59H172c0-.43.07-.73.11-1.1l1-.12V33.24c.55-.39.65-.07.65.44,0,.89,0,1.77,0,2.7l1,.13c0,.34.07.64.11,1h2.8c0,.26,0,.51,0,.76s0,.58.05.89h3.79c-.07-.69-.13-1.36-.21-2.12.1,0,.34-.11.45-.15.08-1.61.15-3.14.23-4.67h.27c0,.17.09.36.12.54.14,1.06-.27,2.18.29,3.21.07.12-.19.5-.34.85l.7.23a7.45,7.45,0,0,0-.2,1.77c0,.41.43.76.67,1.14.25-.34.66-.65.72-1a7.57,7.57,0,0,0-.15-1.89l.69-.17c-.13-.29-.25-.53-.37-.78l.19,0c.06-1.3.12-2.59.17-3.89l.25,0c0,.29.11.58.14.87.11.94.2,1.87.29,2.8a.46.46,0,0,1,0,.27c-.81.91.15.74.36.94a7.23,7.23,0,0,0-.19,1.74,2.09,2.09,0,0,0,.8,1.13,2.63,2.63,0,0,0,.74.34,5,5,0,0,1,.68.26c.07,0,.09.48,0,.63-.39.78-.83,1.51-.23,2.42a.52.52,0,0,1,0,.44,2.12,2.12,0,0,0,0,2c.14.41-.26,1.08-.4,1.63a4.18,4.18,0,0,0-.21,1c0,.31,0,.63,0,1,0,5.08,0,10.16,0,15.24a4.76,4.76,0,0,0,.11,1.16c0,.34-.06.71,0,1,0,.7,0,1.38,0,2.09,0,1,.28,1.8,1.11,1.94a.49.49,0,0,0,.21,0h0l.05,0,.21,0a2.62,2.62,0,0,0,1.08,0,1.46,1.46,0,0,0,.78-1.5,10.66,10.66,0,0,1-.09-1.38v-.1c.41-4.88.24-19.62-.18-20.33a6.09,6.09,0,0,0,.45-1.56c0-2.77,0-5.55-.06-8.32,0-.64,0-1.28,0-1.91,0-.2,0-.39,0-.58,0-.73-.12-1.45-.2-2.34.29,0,.71,0,1.13,0s.66-.16.67-.75c0-2.89,0-5.77.05-8.66a2.9,2.9,0,0,0-.21-.88c.24-.4.56-.69.57-1q0-4.05,0-8.11a19.3,19.3,0,0,1,.48-4.05c.13.94.23,1.68.37,2.71L196,5l.72-.13V.71l.24,0V4.8c.1-.06.22-.11.32-.16A7.47,7.47,0,0,1,198.1,6c.77,2.07,1.49,4.17,2.28,6.43.13-1,.22-1.75.32-2.53l.15,0c.16,1,.32,2,.49,3.05a12.63,12.63,0,0,0-.25,1.76c0,2.28,0,4.57,0,6.86,0,.66.17,1,.78.94a7.86,7.86,0,0,0-.44,3.71c0,1.94,0,3.87.07,5.8,0,.32.05.63.08,1h1.8c-.08,1.32-.21,2.54-.23,3.76,0,2.87,0,5.74,0,8.63,0,.1,0,.22,0,.33a1.6,1.6,0,0,0,.07.52v0a1,1,0,0,0,.94.69c1.13,0,2.27.08,3.4.07,1,0,1.92,0,2.87-.09l.41,0a10.66,10.66,0,0,1,1.26,0c.93.06,1.88.09,2.82.08,1.15,0,2.3,0,3.45,0a.28.28,0,0,0,.13,0l.23.07c.3,0,.6,0,.89,0H220a.58.58,0,0,0,.3-.07,7.29,7.29,0,0,0,2,0,5.55,5.55,0,0,1,1,0h.14a14.11,14.11,0,0,0,2.68,0,2.29,2.29,0,0,0,.44-.09c.33,0,.68,0,1,0,0,3.65,0,7.18,0,10.73,0,2.06,0,4.13,0,6.19,0,.63.16.86.68,1a2.47,2.47,0,0,1,1.08,1c1.12,1.47.56,2.74-.78,3.31-1,.42-.37,1.27-.48,2.06l3.13,0,.15,5.58V77"/></g></g></g></g></svg>