<svg xmlns="http://www.w3.org/2000/svg" viewBox="0 0 30.43 175.99"><defs><style>.cls-1{fill:#fff;}</style></defs><g id="Capa_2" data-name="Capa 2"><g id="Capa_1-2" data-name="Capa 1"><g id="LINEAS"><path id="_3ra_IZQ" data-name="3ra IZQ" class="cls-1" d="M26.56,176a3.78,3.78,0,0,0,2.73-1.12,3.85,3.85,0,0,0,0-5.46,3.86,3.86,0,0,0-5.45,0l-.18.19-11.4-7.2.14-44L1.24,111.64,1.3,0H.06L0,112.34l11.17,6.76-.14,44,12,7.57a3.91,3.91,0,0,0-.3,1.48,3.84,3.84,0,0,0,1.13,2.74A3.79,3.79,0,0,0,26.56,176Zm1.86-2a2.56,2.56,0,0,1-1.86.76,2.61,2.61,0,1,1,1.86-.76Z"/></g></g></g></svg>