<svg xmlns="http://www.w3.org/2000/svg" viewBox="0 0 10.64 136.98"><defs><style>.cls-1{fill:#fff;}</style></defs><g id="Capa_2" data-name="Capa 2"><g id="Capa_1-2" data-name="Capa 1"><path id="_2da_IZQ" data-name="2da IZQ" class="cls-1" d="M7.69,0H6.45L6.32,94.79,0,102.43v8.48l6.29,8.68,0,9.71a3.86,3.86,0,0,0-2.22,6.55,3.86,3.86,0,1,0,3.46-6.51l0-10.15-6.29-8.68v-7.63l6.31-7.64ZM4.93,131.27a2.57,2.57,0,0,1,1.46-.72h.79A2.61,2.61,0,0,1,8.63,135a2.54,2.54,0,0,1-1.85.76,2.61,2.61,0,0,1-2.62-2.62A2.65,2.65,0,0,1,4.93,131.27Z"/></g></g></svg>