<svg id="Capa_1" data-name="Capa 1" xmlns="http://www.w3.org/2000/svg" viewBox="0 0 959 600"><defs><style>.cls-1{fill:#fff;}</style></defs><path id="_3ra_IZQ" data-name="3ra IZQ" class="cls-1" d="M81.1,142a3.86,3.86,0,1,0-2.7-6.6l-.18.2-11.38-7.23.23-44L55.91,77.6,56.21-34H55l-.3,112.33,11.15,6.79-.22,44,12,7.6a3.87,3.87,0,0,0-.3,1.48A3.86,3.86,0,0,0,81.1,142ZM83,140a2.59,2.59,0,0,1-1.86.75,2.61,2.61,0,0,1-2.6-2.63,2.59,2.59,0,0,1,.77-1.84,2.56,2.56,0,0,1,1.86-.76,2.63,2.63,0,0,1,1.85.77A2.64,2.64,0,0,1,83,140Z"/></svg>