<svg id="Capa_1" data-name="Capa 1" xmlns="http://www.w3.org/2000/svg" viewBox="0 0 1200 1200"><defs><style>.cls-1{fill:#fff;}</style></defs><path class="cls-1" d="M195.72,1019.19,188,1007.9h7.37l4.14,6.22,4.09-6.22h7.15L203,1019.05l8.69,12.67h-7.37l-4.91-7.51-4.92,7.51h-7.23Z"/><path class="cls-1" d="M242.32,1017.62h-23v-4.93h23Zm0,9.86h-23v-4.93h23Z"/><path class="cls-1" d="M259.92,1004.22h-6.46v-5.39h6.46Zm-6.46,3.68h6.46v23.82h-6.46Z"/><path class="cls-1" d="M264.11,1007.9h6.14v3.32h.14a8.37,8.37,0,0,1,7.19-4c6.87,0,8.6,3.91,8.6,9.81v14.65h-6.46v-13.46c0-3.91-1.14-5.85-4.14-5.85-3.51,0-5,2-5,6.82v12.49h-6.46Z"/><path class="cls-1" d="M307,1028.68h-.09c-1.5,2.57-4.14,3.68-7.14,3.68-7.1,0-10.56-6.17-10.56-12.76,0-6.4,3.5-12.34,10.42-12.34a8.19,8.19,0,0,1,7,3.54h0v-12h6.46v32.89H307Zm-5.64-16.5c-4.23,0-5.69,3.69-5.69,7.61,0,3.73,1.68,7.64,5.69,7.64,4.28,0,5.55-3.78,5.55-7.69S305.52,1012.18,301.33,1012.18Z"/><path class="cls-1" d="M322.4,1021.4c.18,4.14,2.18,6,5.77,6,2.6,0,4.69-1.61,5.1-3.08H339c-1.82,5.62-5.69,8-11,8-7.42,0-12-5.16-12-12.53,0-7.14,4.87-12.57,12-12.57,8,0,11.87,6.81,11.42,14.14Zm10.51-4.15c-.59-3.31-2-5.07-5.15-5.07a5.12,5.12,0,0,0-5.36,5.07Z"/><path class="cls-1" d="M342.28,1007.9h6.14v3h.09a7.81,7.81,0,0,1,7-3.68c7.37,0,10.69,6,10.69,12.8,0,6.36-3.45,12.3-10.33,12.3a8.31,8.31,0,0,1-7.05-3.59h-.09v11.33h-6.46Zm17.47,12c0-3.78-1.5-7.7-5.64-7.7s-5.6,3.83-5.6,7.7,1.46,7.55,5.64,7.55S359.75,1023.75,359.75,1019.88Z"/><path class="cls-1" d="M374.49,1021.4c.18,4.14,2.19,6,5.78,6,2.6,0,4.69-1.61,5.1-3.08h5.69c-1.82,5.62-5.69,8-11,8-7.41,0-12-5.16-12-12.53,0-7.14,4.87-12.57,12-12.57,8,0,11.88,6.81,11.43,14.14Zm10.51-4.15c-.59-3.31-2-5.07-5.14-5.07a5.13,5.13,0,0,0-5.37,5.07Z"/><path class="cls-1" d="M394.38,1007.9h6.14v3.32h.14a8.35,8.35,0,0,1,7.19-4c6.87,0,8.6,3.91,8.6,9.81v14.65H410v-13.46c0-3.91-1.13-5.85-4.14-5.85-3.5,0-5,2-5,6.82v12.49h-6.46Z"/><path class="cls-1" d="M437.24,1028.68h-.09c-1.5,2.57-4.14,3.68-7.15,3.68-7.1,0-10.55-6.17-10.55-12.76,0-6.4,3.5-12.34,10.42-12.34a8.18,8.18,0,0,1,7,3.54h.05v-12h6.46v32.89h-6.14Zm-5.64-16.5c-4.24,0-5.69,3.69-5.69,7.61,0,3.73,1.68,7.64,5.69,7.64,4.27,0,5.55-3.78,5.55-7.69S435.78,1012.18,431.6,1012.18Z"/><path class="cls-1" d="M452.66,1021.4c.18,4.14,2.19,6,5.78,6,2.59,0,4.69-1.61,5.1-3.08h5.69c-1.83,5.62-5.69,8-11,8-7.41,0-12-5.16-12-12.53,0-7.14,4.87-12.57,12-12.57,8,0,11.88,6.81,11.42,14.14Zm10.51-4.15c-.59-3.31-2-5.07-5.14-5.07a5.13,5.13,0,0,0-5.37,5.07Z"/><path class="cls-1" d="M472.55,1007.9h6.14v3.32h.13a8.37,8.37,0,0,1,7.19-4c6.88,0,8.6,3.91,8.6,9.81v14.65h-6.46v-13.46c0-3.91-1.13-5.85-4.14-5.85-3.5,0-5,2-5,6.82v12.49h-6.46Z"/><path class="cls-1" d="M506.81,1007.9h4.73v4.38h-4.73v11.79c0,2.21.54,2.76,2.73,2.76a9.67,9.67,0,0,0,2-.18v5.11a23.77,23.77,0,0,1-3.78.23c-4,0-7.41-.92-7.41-5.66v-14h-3.92v-4.38h3.92v-7.14h6.46Z"/><path class="cls-1" d="M513.9,998.83h6.47v32.89H513.9Z"/><path class="cls-1" d="M536.15,1034.71c-1.41,3.82-3.64,5.39-8.09,5.39a37.55,37.55,0,0,1-4-.23v-5.39a33.47,33.47,0,0,0,3.77.23c2.23-.23,3-2.58,2.23-4.47l-8.28-22.34h6.92l5.32,16.31h.09l5.14-16.31H546Z"/><path class="cls-1" d="M570.42,1007.26c7.41,0,12.19,5,12.19,12.57s-4.78,12.53-12.19,12.53-12.15-5-12.15-12.53S563.05,1007.26,570.42,1007.26Zm0,20.17c4.41,0,5.73-3.82,5.73-7.6s-1.32-7.65-5.73-7.65-5.69,3.83-5.69,7.65S566.05,1027.43,570.42,1027.43Z"/><path class="cls-1" d="M585,1007.9h6.14v4.42h.09a8.32,8.32,0,0,1,7.51-5.06,4.73,4.73,0,0,1,1.41.23v6.08a11.53,11.53,0,0,0-2.32-.23c-4.73,0-6.37,3.45-6.37,7.64v10.74H585Z"/><path class="cls-1" d="M624.38,1030.2c0,3.91-1.36,10.54-12.19,10.54-4.65,0-10.06-2.21-10.38-7.64h6.42c.59,2.44,2.55,3.27,4.82,3.27,3.6,0,5.23-2.49,5.19-5.9v-3.13h-.09a7.92,7.92,0,0,1-7.06,3.69c-7.05,0-10.05-5.44-10.05-12,0-6.17,3.5-11.79,10.1-11.79,3.09,0,5.46,1.06,7,3.82h.09v-3.18h6.14Zm-6.14-10.69c0-3.87-1.32-7.33-5.51-7.33-3.64,0-5.23,3.23-5.23,6.78,0,3.4,1.27,7.14,5.23,7.14C616.42,1026.1,618.24,1022.92,618.24,1019.51Z"/><path class="cls-1" d="M627.47,1015.22c.37-6.12,5.78-8,11.06-8,4.69,0,10.33,1.06,10.33,6.77v12.39c0,2.16.23,4.33.82,5.3h-6.55a10,10,0,0,1-.46-2.31,10.7,10.7,0,0,1-7.92,2.95c-4.46,0-8-2.26-8-7.14,0-5.39,4-6.68,8-7.23s7.65-.46,7.65-3.13-1.91-3.23-4.19-3.23c-2.46,0-4.05,1-4.28,3.59Zm14.93,4.84c-1.09,1-3.37,1-5.37,1.38s-3.82,1.11-3.82,3.5,1.86,3,4,3c5.05,0,5.23-4.05,5.23-5.48Z"/><path class="cls-1" d="M653,1007.9h6.15v3.32h.13a8.37,8.37,0,0,1,7.19-4c6.87,0,8.6,3.91,8.6,9.81v14.65h-6.46v-13.46c0-3.91-1.14-5.85-4.14-5.85-3.5,0-5,2-5,6.82v12.49H653Z"/><path class="cls-1" d="M684.76,1004.22H678.3v-5.39h6.46Zm-6.46,3.68h6.46v23.82H678.3Z"/><path class="cls-1" d="M687.49,1026.79l12.24-14H688.4v-4.93h19.84v4.93l-12.24,14h13.1v4.93H687.49Z"/><path class="cls-1" d="M717,1021.4c.18,4.14,2.19,6,5.78,6,2.6,0,4.69-1.61,5.1-3.08h5.69c-1.82,5.62-5.69,8-11,8-7.41,0-12-5.16-12-12.53,0-7.14,4.87-12.57,12-12.57,8,0,11.88,6.81,11.43,14.14Zm10.51-4.15c-.59-3.31-2-5.07-5.14-5.07a5.13,5.13,0,0,0-5.37,5.07Z"/><path class="cls-1" d="M753.65,1028.68h-.09c-1.51,2.57-4.14,3.68-7.15,3.68-7.1,0-10.55-6.17-10.55-12.76,0-6.4,3.5-12.34,10.42-12.34a8.18,8.18,0,0,1,7,3.54h.05v-12h6.46v32.89h-6.14Zm-5.64-16.5c-4.24,0-5.69,3.69-5.69,7.61,0,3.73,1.68,7.64,5.69,7.64,4.27,0,5.55-3.78,5.55-7.69S752.19,1012.18,748,1012.18Z"/><path class="cls-1" d="M783.36,1004.91h-9.74v-6.08h26.62v6.08H790.5v26.81h-7.14Z"/><path class="cls-1" d="M803.06,998.83h24.3v6.08H810.2v7H826v5.62H810.2v8.07h17.52v6.08H803.06Z"/><path class="cls-1" d="M830.72,998.83h14c8.42,0,14.74,5.34,14.74,16.26,0,9.53-4.82,16.63-14.74,16.63h-14Zm7.15,26.81h6.37c4.14,0,8.1-2.58,8.1-9.86,0-6.64-2.28-10.87-9.38-10.87h-5.09Z"/><path class="cls-1" d="M879.91,1021.4c.18,4.14,2.18,6,5.78,6,2.59,0,4.69-1.61,5.1-3.08h5.68c-1.82,5.62-5.68,8-11,8-7.42,0-12-5.16-12-12.53,0-7.14,4.87-12.57,12-12.57,8,0,11.88,6.81,11.42,14.14Zm10.51-4.15c-.59-3.31-2-5.07-5.14-5.07a5.12,5.12,0,0,0-5.37,5.07Z"/><path class="cls-1" d="M911.9,1031.72h-7.19l-8.06-23.82h6.78l5,16.26h.09l5-16.26h6.42Z"/><path class="cls-1" d="M926.05,1021.4c.18,4.14,2.18,6,5.78,6,2.59,0,4.68-1.61,5.09-3.08h5.69c-1.82,5.62-5.69,8-11,8-7.42,0-12-5.16-12-12.53,0-7.14,4.87-12.57,12-12.57,8,0,11.88,6.81,11.42,14.14Zm10.51-4.15c-.59-3.31-2-5.07-5.14-5.07a5.12,5.12,0,0,0-5.37,5.07Z"/><path class="cls-1" d="M945.93,1007.9h6.14v3.32h.14a8.37,8.37,0,0,1,7.19-4c6.87,0,8.6,3.91,8.6,9.81v14.65h-6.46v-13.46c0-3.91-1.14-5.85-4.14-5.85-3.51,0-5,2-5,6.82v12.49h-6.46Z"/><path class="cls-1" d="M980.19,1007.9h4.74v4.38h-4.74v11.79c0,2.21.55,2.76,2.73,2.76a9.76,9.76,0,0,0,2-.18v5.11a23.92,23.92,0,0,1-3.78.23c-4,0-7.42-.92-7.42-5.66v-14h-3.91v-4.38h3.91v-7.14h6.46Z"/><path class="cls-1" d="M210.57,910.66H185.28V887.24h78.37v23.42H238.36v68H210.57Z"/><path class="cls-1" d="M268,887.24h76.08v23.42H295.78v11.39h48.27v21.76H295.78V955.2h48.28v23.42H268Z"/><path class="cls-1" d="M348.73,887.24h45.64c30.08,0,40.71,22.53,40.71,45.56,0,28-14.66,45.82-46.14,45.82H348.73Zm27.81,68h10.87c17.33,0,19.86-14.21,19.86-22.79,0-5.75-1.78-21.75-21.88-21.75h-8.85Z"/><path class="cls-1" d="M475,943.41l-8.48-14.25-8.28,14.25H437.91l19.34-28.8-18.62-27.54H459l7.55,13.61,7.76-13.61H494.7l-18.62,27.54,19.34,28.8Z"/><path class="cls-1" d="M516.74,882.94h59.78v10.17H527.57v25.2h45.26v9.6H527.57v28.14h49.79v9.89H516.74Z"/><path class="cls-1" d="M590.86,882.94h10v83h-10Z"/><path class="cls-1" d="M672.74,885.31q12.22,6.5,15,22.77h-11q-2-9.09-8.32-13.25t-15.9-4.15a24.8,24.8,0,0,0-19.17,8.64q-7.78,8.65-7.79,25.77,0,14.8,6.42,24.1t20.93,9.29q11.1,0,18.39-6.53t7.45-21.1H653v-9.32h36v44.41h-7.14l-2.68-10.68q-5.64,6.27-10,8.7-7.31,4.18-18.58,4.18a35.92,35.92,0,0,1-25.06-9.55q-11.45-12-11.44-32.88t11.16-33.17q10.61-11.74,27.46-11.75Q664.31,880.79,672.74,885.31Z"/><path class="cls-1" d="M714.93,905.43V945.6a17.08,17.08,0,0,0,1.45,7.57q2.68,5.43,10,5.42,10.5,0,14.29-9.49,2.07-5.08,2.07-14V905.43h10v60.51h-9.49l.11-8.93a20.42,20.42,0,0,1-4.85,5.82,21.21,21.21,0,0,1-13.95,4.75q-12.78,0-17.42-8.65-2.5-4.63-2.51-12.37V905.43Z"/><path class="cls-1" d="M805.68,907.09a23,23,0,0,1,9.1,7.83,27.18,27.18,0,0,1,4,10.68,71.22,71.22,0,0,1,.89,13.33H775.88q.27,9.21,4.3,14.78t12.44,5.56q7.88,0,12.56-5.25A17.82,17.82,0,0,0,809,947h9.88a21.14,21.14,0,0,1-2.59,7.43,26.3,26.3,0,0,1-4.94,6.7,23.32,23.32,0,0,1-11.33,6.1,34.23,34.23,0,0,1-8.21.9,25,25,0,0,1-18.92-8.22q-7.75-8.22-7.75-23,0-14.58,7.81-23.67t20.43-9.1A27,27,0,0,1,805.68,907.09Zm3.68,23.76a26.51,26.51,0,0,0-2.84-10.56q-4.14-7.35-13.79-7.35A15.22,15.22,0,0,0,781.12,918a19.21,19.21,0,0,0-5,12.85Z"/><path class="cls-1" d="M832.3,905.43h9.55v10.45q1.17-3,5.75-7.43a14.79,14.79,0,0,1,10.54-4.38c.19,0,.51,0,1,.06l2.29.22v10.74a15.86,15.86,0,0,0-1.65-.23c-.5,0-1.05-.05-1.64-.05q-7.59,0-11.67,4.94a17.42,17.42,0,0,0-4.07,11.38v34.81H832.3Z"/><path class="cls-1" d="M907.31,907.09a22.88,22.88,0,0,1,9.1,7.83,27.18,27.18,0,0,1,4,10.68,71.22,71.22,0,0,1,.89,13.33H877.51q.29,9.21,4.3,14.78t12.44,5.56q7.88,0,12.56-5.25a17.84,17.84,0,0,0,3.8-7.07h9.88a21.39,21.39,0,0,1-2.6,7.43,26.3,26.3,0,0,1-4.94,6.7,23.32,23.32,0,0,1-11.33,6.1,34.14,34.14,0,0,1-8.2.9,25,25,0,0,1-18.92-8.22q-7.77-8.22-7.76-23,0-14.58,7.81-23.67t20.43-9.1A27,27,0,0,1,907.31,907.09ZM911,930.85a26.5,26.5,0,0,0-2.85-10.56q-4.12-7.35-13.78-7.35A15.19,15.19,0,0,0,882.76,918a19.21,19.21,0,0,0-5,12.85Z"/><path class="cls-1" d="M977.3,911.47q8,7.8,8,22.94,0,14.64-7,24.18t-21.82,9.55q-12.34,0-19.59-8.44T929.58,937q0-15.25,7.65-24.29t20.54-9A26.87,26.87,0,0,1,977.3,911.47Zm-6.22,40.26a38.61,38.61,0,0,0,3.71-17q0-8.48-2.68-13.78-4.25-8.37-14.62-8.36-9.21,0-13.4,7.11t-4.18,17.18q0,9.66,4.18,16.1t13.29,6.44Q967.37,959.38,971.08,951.73Z"/><path class="cls-1" d="M923.09,810.84,700.6,503.49,918.9,200A12.14,12.14,0,0,0,909,180.74l-30,0h-1.13l-16.29,0h-.06l-59.12.1h-1.72l-28.6,0h-1.72l-66.72.1a12.08,12.08,0,0,0-9.82,5L582.14,340.25,470.48,186.39a12.14,12.14,0,0,0-9.83-5l-206.88.29A12.15,12.15,0,0,0,244,201L463.72,503.78l-222,306.53a12.15,12.15,0,0,0,9.8,19.27l331.21.95,237.91-.42h92.61a12.14,12.14,0,0,0,9.84-19.27ZM820.64,818l-237.93.42L459.41,818l-207.85-.59,226.68-313c.16-.22.32-.44.48-.64l-224.93-310,206.86-.28L582.16,361l.55.75v-1.52l120.95-167,29.93,0h1.66l26.19,0h1.72l28.62,0h1.72l59.26-.08H855l16.19,0h1l36.86-.06L685.62,503.51c.37.51.73,1,1.08,1.5L913.25,818Z"/><path class="cls-1" d="M800.38,182.93h-1.72l-8.91,12.14L740,263l5.59,13.46-29.1,39.51,5.78,14.71a4.6,4.6,0,0,0-1.25,1.16,4.33,4.33,0,0,0-.79,3.19,4.38,4.38,0,0,0,1.7,2.82,4.31,4.31,0,0,0,6.82-4.11,4.32,4.32,0,0,0-1.7-2.83,4.39,4.39,0,0,0-3.2-.79l-.28.06-5.52-14,29.12-39.52-5.59-13.44,49.91-68.09ZM724,331.44a2.92,2.92,0,0,1,2.16.53,2.91,2.91,0,1,1-4.09.63A3,3,0,0,1,724,331.44Z"/><path class="cls-1" d="M768.34,183l-8.93,12.14-31.83,43.25-10.71,2.7-5.6,7.63-.09,12-6.43,8.74a4.3,4.3,0,0,0-6.32,4.41,4.3,4.3,0,0,0,1.7,2.84,4.45,4.45,0,0,0,3.2.79,4.3,4.3,0,0,0,2.51-7.19l6.72-9.13.08-12,5-6.86,10.73-2.71,32.72-44.47L770.06,183ZM705,274.9a2.86,2.86,0,0,1-1.9,1.15,2.94,2.94,0,0,1-2.17-.53,2.9,2.9,0,0,1-.62-4.09,2.93,2.93,0,0,1,1.92-1.17,3.06,3.06,0,0,1,1.78.32l.71.53a2.88,2.88,0,0,1,.28,3.79Z"/><polygon class="cls-1" points="740.23 185.69 739.14 184.88 641.66 316.55 641.66 316.55 632.26 317.98 633.69 327.38 643.09 325.95 641.95 318.44 740.23 185.69"/><path class="cls-1" d="M870.16,195l-.28-1.82,7.1-10.34h-1.13l-7,10.12.3,2,1.5,9.9L854.11,229l2,10.71a2.95,2.95,0,0,0-.85,5.24,2.94,2.94,0,0,0,2.21.47,2.9,2.9,0,0,0,1.88-1.24,2.93,2.93,0,0,0-.75-4.09,3.09,3.09,0,0,0-1.55-.5l-1.93-10.38,16.58-24.09ZM858,240.85a2,2,0,0,1-.77,3.61,1.91,1.91,0,0,1-1.48-.33,2,2,0,0,1,.77-3.6A1.93,1.93,0,0,1,858,240.85Z"/><path class="cls-1" d="M807,235l19.08,9.47a.91.91,0,0,0,1.17-.31.93.93,0,0,0-.12-1.2l-8.75-8.2,4.86.63a1,1,0,0,0,.88-.38L861,183.89l-1.51-1.09L823,233.48l-7.16-.92a.91.91,0,0,0-1,.53,1,1,0,0,0,.2,1.07l6.24,5.86L802,230.44a.94.94,0,0,0-1.18.3,1,1,0,0,0,.13,1.21l28.13,25.87-45.44-27.36a1,1,0,0,0-1.21.24l0,0a.92.92,0,0,0,.11,1.21l28.89,27.38-5.07-1.7a.94.94,0,0,0-1.05.35L741.5,346.38a6.73,6.73,0,0,0-7.32,2.5,6.65,6.65,0,0,0-.51,7l-37.32,51.8a5.61,5.61,0,1,0,2.62,1.57l36.78-51.05,0,0a6.66,6.66,0,0,0,9.05-1.71,6.58,6.58,0,0,0-1.22-9.12l-.16-.14h0l-.22-.13,63.17-87.56,8.38,2.82a.94.94,0,0,0,1.09-.41.93.93,0,0,0-.15-1.15L790,236.45l46,27.68a.93.93,0,0,0,1.23-.23,1,1,0,0,0-.1-1.24Z"/><path id="guereo1" class="cls-1" d="M753.12,811.79c.31-2.36-1.64-4.87,1.44-6.14,4-1.66,5.65-5.42,2.34-9.81-.88-1.18-2-2.51-3.19-2.84-1.56-.42-2.05-1.1-2-3,.09-6.14.08-12.27.1-18.41,0-10.5.06-21,.09-31.86-1,0-2,0-3,.12a6.46,6.46,0,0,1-1.28.26,42.77,42.77,0,0,1-8.39,0c-2.92-.37-5.93.56-8.85,0a1.93,1.93,0,0,1-.9.22,36.8,36.8,0,0,1-3.93-.19,2.28,2.28,0,0,1-.68-.18,1,1,0,0,1-.38.09c-6.21,0-12.44.27-18.64-.16a34.08,34.08,0,0,0-4.95,0,170.44,170.44,0,0,1-18.64,0c-1.49-.06-3-1-3-3.68.13-8.87,0-17.74.15-26.6,0-3.63.45-7.26.71-11.18l-5.36,0c-.08-1.22-.19-2.14-.21-3.07-.07-5.74-.2-11.49-.16-17.23,0-3.68-.49-7.48,1.31-11-1.8.26-2.31-.81-2.29-2.81.1-6.78,0-13.57.14-20.36a41.38,41.38,0,0,1,.73-5.24c-.48-3.07-1-6.07-1.43-9.07l-.43.07c-.3,2.32-.59,4.64-1,7.52-2.35-6.72-4.47-13-6.74-19.12a21.92,21.92,0,0,0-2.38-3.89l-1,.46,0-12.19-.7,0,0,12.38-2.13.35L650.78,637c-.41-3.06-.71-5.25-1.09-8.06-.91,2.89-1.47,9.93-1.45,12.06q.13,12,0,24c0,.88-1,1.74-1.66,3a9.67,9.67,0,0,1,.59,2.6c0,8.57-.17,17.14-.22,25.72,0,1.74-.62,2.32-2,2.21s-2.51,0-3.35,0c.23,2.66.55,4.79.57,6.94.1,10.71.18,21.43.13,32.14,0,1.4-.77,2.8-1.32,4.63,1.24,2.09,1.6,45.88.35,60.38a2.61,2.61,0,0,1,0,.28c0,1.45.2,2.7.29,4.12.12,1.93-.75,3.84-2.34,4.44a7.5,7.5,0,0,1-3.2.1,2.9,2.9,0,0,1-.6-.12c-.06,0-.11,0-.17,0l-.13,0a1.52,1.52,0,0,1-.65-.07c-2.45-.44-3.33-2.69-3.26-5.8,0-2.08.11-4.1.05-6.19,0-.85.08-1.92.13-3a15.76,15.76,0,0,1-.32-3.42q0-24.08.13-48.14a11.76,11.76,0,0,1,.61-2.88c.43-1.65,1.62-3.62,1.22-4.84-.72-2.17-1.11-3.87.1-5.83a1.65,1.65,0,0,0,0-1.29c-1.78-2.71-.46-4.88.69-7.18a2.74,2.74,0,0,0,0-1.9c-1.37-.68-3-.87-4.21-1.77a5.94,5.94,0,0,1-2.33-3.39c-.28-1.56.33-3.35.57-5.14-.67-.62-3.47-.12-1.08-2.8a1.31,1.31,0,0,0,.09-.81c-.27-2.77-.54-5.55-.84-8.32-.1-.87-.28-1.72-.42-2.58l-.73.08-.54,11.55-.55-.08,1.08,2.32-2,.51c.2,2.08.69,3.92.44,5.59-.18,1.14-1.4,2-2.15,3.05-.71-1.11-1.86-2.14-2-3.35-.19-1.67.37-3.47.62-5.29l-2.07-.69c.42-1,1.2-2.16,1-2.53-1.64-3-.42-6.37-.84-9.51-.08-.55-.24-1.09-.36-1.64l-.79,0c-.23,4.53-.46,9.06-.71,13.88l-1.33.44c.21,2.23.4,4.24.6,6.29l-11.27,0c-.09-1.72-.16-3.18-.24-4.9l-8.3,0c-.14-1.17-.25-2.08-.36-3.07l-3-.4c0-2.76,0-5.39,0-8,0-1.51-.28-2.46-1.94-1.33l0,9.38-2.94.34-.36,3.28-8.32,0c-.09,1.77-.16,3.15-.23,4.73l-11.42,0c.31-2.2.6-4.21.89-6.27l-1.9-.83a8.61,8.61,0,0,0,.84-2.71c-.14-2.8-.46-5.58-.77-8.37a20.19,20.19,0,0,0-.57-2.51l-.68.17-.61,13.7-1.44.49c.2,2,.67,3.73.46,5.35-.16,1.2-1.21,2.23-1.86,3.34-.76-1.1-2-2.09-2.17-3.31-.24-1.66.32-3.5.56-5.45l-2.11-.51c.42-1.09,1.21-2.43,1-2.73-1.63-2.35-.48-5-.79-7.48-.15-1.18-.16-2.38-.24-3.64-.48.15-.61.16-.61.19-.47,3.82-2.11,8.24-1.07,11.31,1.2,3.55-1.19,2.22-1.66,3.15.35,1.09,1,2.1.91,3.05-.09,1.48-.3,3.41-1.09,4.24a10.31,10.31,0,0,1-4.63,2.6c-1.5.42-2.17.69-.82,2.25,2.76,3.2-.37,7.25,1.08,10.7.31.75-.34,2-.45,3.11a5.82,5.82,0,0,0,.09,1.91c.51,2.24,1.57,4.46,1.58,6.69.1,15.57,0,31.15-.07,46.72v.11a4.33,4.33,0,0,1,0,.82c0,.17,0,.35,0,.53a35,35,0,0,1-.36,10.86,2.67,2.67,0,0,1-2.45,2.24c-2.17-.09-4.89.4-6.25-2.22-.85-1.63-.77-3.73-.68-5.68,0-.73,0-1.46,0-2.16-.06-6.6,0-13.21,0-19.82s.18-13.41,0-20.1c-.15-6.43.37-12.84.23-19.27-.06-2.8.14-5.63-.06-8.49a48.26,48.26,0,0,1-.1-8.06,3.81,3.81,0,0,1-.17-1.78c.39-3,.1-5.9.25-8.82h0c-.17-4.73.44-9.43.17-14.18-.15-2.56.63-5.19,1-7.93-3.66-3.83,0-10.45-3.58-15.36-.37,4.51-.69,8.45-1.08,13.17-.47-1.49-.7-2.25-1-3-1.32-3.84-2.66-7.54-6.13-9.5-1.11-.63-1.64-2.75-2.42-4.2-.25-.48-.4-1-.66-1.5-.45-.82-1.31-1.58-1.36-2.41a49.87,49.87,0,0,1,.31-5.75l2.53-.36,0-.39-2.4-.45c-.17-1.24-.31-2.33-.46-3.42-.51,1.89,0,4.19-3,4.06l2,.49c2.19,5.41-1.07,8.75-2.49,12.68a3.2,3.2,0,0,1-1.57,1.61c-2.92,1.32-4.19,4.3-5.34,7.45-.46,1.24-.9,2.48-1.35,3.72-.52-4-.39-8-2.07-11.63-.52,2.93-.57,5.84-.85,8.72-.17,1.73-.27,4.33-1.14,4.93-1.7,1.16-.8,2.16-.63,3.4.33,2.39.65,4.79.83,7.2.06.86-.47,1.76-.45,2.64,0,1.28.47,2.56.46,3.83-.05,4.67-.2,9.33-.32,14.09-.63-.49-1.3-1-1.91-1.51q-14.08-12.55-28.14-25.12c-3.34-3-3.68-4.12-2.71-9l2.85-1.27-2.72-1.54-1.15-2.85c-.45,1-.9,2.07-1.27,2.9l-2.67,1.15,3,1.81c.43,5.9.42,5.89-3.5,9.33q-9.72,8.57-19.41,17.16c-3.38,3-6.78,5.91-10.57,9.22a22.4,22.4,0,0,0,.84-4.23c0-1.89-.49-3.75-.66-5.64-.4-4.38.62-8.71.13-13.15-.25-2.38.62-4.94.86-6.56a59.63,59.63,0,0,1-1.56-6c-.23-1.55.06-3.21-.11-4.79-.18-1.73-.62-3.42-.95-5.13l-.9.14c-.3,3.88-.59,7.77-.94,12.35-.56-1.51-.9-2.33-1.17-3.17-1.19-3.74-2.55-7.19-5.88-9-1-.57-1.65-2.35-2.39-3.63-.55-.94-1-2-1.49-3l-.48.28,0-7.67,2.8-.33c0-.13,0-.26,0-.4l-2.74-.51c-.09-1.22-.18-2.35-.26-3.49h-.27c-.09,1.17-.18,2.34-.28,3.56l-2.76.35v.47l2.83.32,0,7.77-.6-.31a29.67,29.67,0,0,1-1.34,2.71c-.91,1.46-1.68,3.45-2.91,4.14-2.43,1.36-3.64,3.68-4.68,6.34-.61,1.55-1.16,3.14-1.85,5-.42-4.3-.79-8.13-1.24-12.8-.68,1.11-1.08,1.48-1.12,1.89-.25,2.85-.37,5.72-.66,8.56-.14,1.44-.2,3.65-.92,4.12-1.88,1.24-.64,2.49-.44,3.73.16,1,.58,1.84.69,2.79.35,3.1-.56,6.13-.09,9.34.77,5.24-.61,10.57,0,15.93.68,6-.86,12.09,0,18.15a11.61,11.61,0,0,1-.26,2.45,15.61,15.61,0,0,0-.21,2.53c.07,1.2.44,2.37.44,3.56,0,16.42-.25,32.85,0,49.27a26.29,26.29,0,0,1-.35,4.61,37.33,37.33,0,0,1-.76,8.59c0,1.94,0,3.88-.21,5.8-.07.69-.21,1.48-.34,2.32.06,1.45.14,2.9.29,4.34l350.63,1,0-9.09Zm-150-.49a2.22,2.22,0,0,1-.37-.09h-3.11a7.33,7.33,0,0,1-1.34.18c-.17,0-.34.07-.52.08a5.45,5.45,0,0,1-1.56-.17H596c-.54,0-1.1,0-1.66,0a4.87,4.87,0,0,1-.54,0,42.61,42.61,0,0,1-5.3.06,7.38,7.38,0,0,1-2.39-.08c-2.84,0-5.68,0-8.51-.05-.38,0-.76-.43-1.14-.66.26-.49-.8-9.28-.8-10.06q-.08-17.84.08-35.67c0-.69.61-1.39,1-2.07.44-.88.91-1.76,1.49-2.86l-2.15-.68c-.46-8.6,6.18-18.82,12.28-18.89,11-.12,17.53,6.73,17.71,18.87l-2.18.71c.53,1.06,1,2,1.49,3a6,6,0,0,1,.87,2.19c0,8.33,0,16.66,0,25,.65,5.09.47,10.09.61,15.24C606.9,808.43,606.27,811.7,603.07,811.3Z"/></svg>