<svg xmlns="http://www.w3.org/2000/svg" viewBox="0 0 278.41 60.26"><defs><style>.cls-1,.cls-2{fill:#fff;}.cls-2{font-size:40.04px;font-family:Helvetica;}</style></defs><g id="Capa_2" data-name="Capa 2"><g id="Capa_1-2" data-name="Capa 1"><path class="cls-1" d="M3.62,52.81.94,48.9H3.49l1.43,2.15L6.34,48.9H8.81L6.13,52.76l3,4.38H6.59l-1.7-2.6-1.7,2.6H.69Z"/><path class="cls-1" d="M19.74,52.26H11.79v-1.7h8Zm0,3.41H11.79V54h8Z"/><path class="cls-1" d="M25.83,47.63H23.59V45.76h2.24ZM23.59,48.9h2.24v8.24H23.59Z"/><path class="cls-1" d="M27.28,48.9H29.4v1.15h.05a2.88,2.88,0,0,1,2.49-1.37c2.38,0,3,1.35,3,3.39v5.07H32.68V52.49c0-1.36-.39-2-1.43-2-1.22,0-1.74.69-1.74,2.36v4.32H27.28Z"/><path class="cls-1" d="M42.11,56.09h0a2.69,2.69,0,0,1-2.47,1.27C37.15,57.36,36,55.23,36,53s1.22-4.27,3.61-4.27A2.83,2.83,0,0,1,42,49.9h0V45.76h2.24V57.14H42.11Zm-2-5.71c-1.47,0-2,1.28-2,2.63s.58,2.65,2,2.65,1.92-1.31,1.92-2.66S41.61,50.38,40.16,50.38Z"/><path class="cls-1" d="M47.45,53.57c.06,1.44.75,2.09,2,2.09a1.84,1.84,0,0,0,1.76-1.07h2a3.66,3.66,0,0,1-3.81,2.77A4,4,0,0,1,45.21,53a4.11,4.11,0,0,1,4.16-4.35c2.77,0,4.11,2.36,4,4.89Zm3.63-1.43c-.2-1.15-.69-1.76-1.77-1.76a1.78,1.78,0,0,0-1.86,1.76Z"/><path class="cls-1" d="M54.33,48.9h2.12V50h0a2.72,2.72,0,0,1,2.43-1.27c2.55,0,3.7,2.09,3.7,4.43s-1.2,4.25-3.57,4.25a2.9,2.9,0,0,1-2.45-1.24h0V60H54.33Zm6,4.14c0-1.3-.52-2.66-1.95-2.66S56.48,51.71,56.48,53s.51,2.62,2,2.62S60.37,54.38,60.37,53Z"/><path class="cls-1" d="M65.47,53.57c.07,1.44.76,2.09,2,2.09a1.85,1.85,0,0,0,1.77-1.07h2a3.66,3.66,0,0,1-3.81,2.77A4,4,0,0,1,63.24,53a4.11,4.11,0,0,1,4.16-4.35c2.77,0,4.1,2.36,3.95,4.89Zm3.64-1.43c-.2-1.15-.69-1.76-1.78-1.76a1.79,1.79,0,0,0-1.86,1.76Z"/><path class="cls-1" d="M72.35,48.9h2.13v1.15h0A2.87,2.87,0,0,1,77,48.68c2.37,0,3,1.35,3,3.39v5.07H77.76V52.49c0-1.36-.4-2-1.44-2-1.21,0-1.73.69-1.73,2.36v4.32H72.35Z"/><path class="cls-1" d="M87.19,56.09h0a2.69,2.69,0,0,1-2.47,1.27C82.23,57.36,81,55.23,81,53s1.21-4.27,3.61-4.27a2.83,2.83,0,0,1,2.42,1.22h0V45.76h2.23V57.14H87.19Zm-2-5.71c-1.46,0-2,1.28-2,2.63s.58,2.65,2,2.65,1.92-1.31,1.92-2.66S86.68,50.38,85.23,50.38Z"/><path class="cls-1" d="M92.52,53.57c.07,1.44.76,2.09,2,2.09a1.86,1.86,0,0,0,1.77-1.07h2a3.65,3.65,0,0,1-3.81,2.77A4,4,0,0,1,90.29,53a4.1,4.1,0,0,1,4.15-4.35c2.77,0,4.11,2.36,4,4.89Zm3.64-1.43c-.2-1.15-.69-1.76-1.78-1.76a1.78,1.78,0,0,0-1.86,1.76Z"/><path class="cls-1" d="M99.4,48.9h2.13v1.15h0a2.87,2.87,0,0,1,2.48-1.37c2.38,0,3,1.35,3,3.39v5.07H104.8V52.49c0-1.36-.39-2-1.43-2-1.21,0-1.73.69-1.73,2.36v4.32H99.4Z"/><path class="cls-1" d="M111.26,48.9h1.64v1.51h-1.64v4.08c0,.77.19,1,.94,1a3.31,3.31,0,0,0,.7-.06v1.77a9,9,0,0,1-1.31.08c-1.37,0-2.57-.32-2.57-2V50.41h-1.35V48.9H109V46.43h2.24Z"/><path class="cls-1" d="M113.71,45.76H116V57.14h-2.24Z"/><path class="cls-1" d="M121.41,58.18a2.55,2.55,0,0,1-2.8,1.86,12.59,12.59,0,0,1-1.37-.08V58.1c.43,0,.87.09,1.31.08a1.07,1.07,0,0,0,.77-1.55l-2.87-7.73h2.4l1.84,5.64h0l1.78-5.64h2.31Z"/><path class="cls-1" d="M133.27,48.68A4,4,0,0,1,137.49,53a4.21,4.21,0,1,1-8.42,0A4,4,0,0,1,133.27,48.68Zm0,7c1.53,0,2-1.32,2-2.63s-.45-2.65-2-2.65-2,1.33-2,2.65S131.76,55.66,133.27,55.66Z"/><path class="cls-1" d="M138.31,48.9h2.12v1.53h0a2.88,2.88,0,0,1,2.6-1.75,1.57,1.57,0,0,1,.49.08v2.1a3.87,3.87,0,0,0-.8-.08c-1.64,0-2.21,1.2-2.21,2.65v3.71h-2.23Z"/><path class="cls-1" d="M151.94,56.61c0,1.36-.47,3.65-4.22,3.65-1.6,0-3.48-.76-3.59-2.64h2.22A1.52,1.52,0,0,0,148,58.75c1.25,0,1.81-.86,1.8-2V55.63h0a2.75,2.75,0,0,1-2.45,1.27c-2.44,0-3.48-1.88-3.48-4.14s1.22-4.08,3.5-4.08A2.53,2.53,0,0,1,149.79,50h0V48.9h2.12Zm-2.12-3.69c0-1.34-.46-2.54-1.91-2.54-1.26,0-1.81,1.12-1.81,2.35s.44,2.47,1.81,2.47A2,2,0,0,0,149.82,52.92Z"/><path class="cls-1" d="M153,51.43c.13-2.12,2-2.75,3.83-2.75,1.62,0,3.57.36,3.57,2.34v4.29a4.14,4.14,0,0,0,.29,1.83h-2.27a3.55,3.55,0,0,1-.16-.8,3.71,3.71,0,0,1-2.74,1c-1.54,0-2.77-.78-2.77-2.47,0-1.86,1.39-2.31,2.77-2.5s2.65-.16,2.65-1.08-.66-1.12-1.45-1.12-1.4.35-1.48,1.24Zm5.17,1.68a4.55,4.55,0,0,1-1.86.48c-.69.14-1.32.38-1.32,1.21s.64,1.05,1.37,1.05a1.68,1.68,0,0,0,1.81-1.9Z"/><path class="cls-1" d="M161.83,48.9H164v1.15H164a2.88,2.88,0,0,1,2.49-1.37c2.38,0,3,1.35,3,3.39v5.07h-2.24V52.49c0-1.36-.39-2-1.43-2-1.22,0-1.74.69-1.74,2.36v4.32h-2.23Z"/><path class="cls-1" d="M172.83,47.63H170.6V45.76h2.23ZM170.6,48.9h2.23v8.24H170.6Z"/><path class="cls-1" d="M173.78,55.44,178,50.61h-3.92V48.9H181v1.71l-4.24,4.83h4.54v1.7h-7.48Z"/><path class="cls-1" d="M184,53.57c.06,1.44.76,2.09,2,2.09a1.83,1.83,0,0,0,1.76-1.07h2a3.66,3.66,0,0,1-3.81,2.77A4,4,0,0,1,181.75,53a4.1,4.1,0,0,1,4.15-4.35c2.77,0,4.11,2.36,3.95,4.89Zm3.64-1.43c-.21-1.15-.69-1.76-1.78-1.76A1.78,1.78,0,0,0,184,52.14Z"/><path class="cls-1" d="M196.67,56.09h0a2.69,2.69,0,0,1-2.47,1.27c-2.46,0-3.65-2.13-3.65-4.41s1.21-4.27,3.6-4.27a2.85,2.85,0,0,1,2.43,1.22h0V45.76h2.24V57.14h-2.13Zm-1.95-5.71c-1.47,0-2,1.28-2,2.63s.58,2.65,2,2.65,1.92-1.31,1.92-2.66S196.17,50.38,194.72,50.38Z"/><path class="cls-1" d="M207,47.86h-3.37v-2.1h9.21v2.1h-3.37v9.28H207Z"/><path class="cls-1" d="M213.77,45.76h8.41v2.1h-5.94V50.3h5.45v2h-5.45V55h6.06v2.1h-8.53Z"/><path class="cls-1" d="M223.34,45.76h4.85c2.91,0,5.1,1.85,5.1,5.63,0,3.3-1.67,5.75-5.1,5.75h-4.85ZM225.81,55H228c1.43,0,2.8-.9,2.8-3.41,0-2.3-.79-3.77-3.24-3.77h-1.77Z"/><path class="cls-1" d="M240.36,53.57c.06,1.44.76,2.09,2,2.09a1.86,1.86,0,0,0,1.77-1.07h2a3.65,3.65,0,0,1-3.81,2.77A4,4,0,0,1,238.13,53a4.1,4.1,0,0,1,4.15-4.35c2.77,0,4.11,2.36,4,4.89ZM244,52.14c-.21-1.15-.69-1.76-1.78-1.76a1.78,1.78,0,0,0-1.86,1.76Z"/><path class="cls-1" d="M251.43,57.14h-2.49l-2.78-8.24h2.34l1.72,5.63h0L252,48.9h2.22Z"/><path class="cls-1" d="M256.33,53.57c.06,1.44.75,2.09,2,2.09a1.84,1.84,0,0,0,1.76-1.07h2a3.66,3.66,0,0,1-3.81,2.77A4,4,0,0,1,254.09,53a4.11,4.11,0,0,1,4.16-4.35c2.77,0,4.11,2.36,3.95,4.89ZM260,52.14c-.2-1.15-.69-1.76-1.78-1.76a1.77,1.77,0,0,0-1.85,1.76Z"/><path class="cls-1" d="M263.21,48.9h2.12v1.15h.05a2.88,2.88,0,0,1,2.49-1.37c2.38,0,3,1.35,3,3.39v5.07h-2.23V52.49c0-1.36-.4-2-1.44-2-1.21,0-1.73.69-1.73,2.36v4.32h-2.23Z"/><path class="cls-1" d="M275.06,48.9h1.64v1.51h-1.64v4.08c0,.77.19,1,.95,1a3.28,3.28,0,0,0,.69-.06v1.77a9,9,0,0,1-1.31.08c-1.37,0-2.56-.32-2.56-2V50.41h-1.36V48.9h1.36V46.43h2.23Z"/><path class="cls-1" d="M8.75,15.25H0V7.15H27.12v8.1H18.37V38.77H8.75Z"/><path class="cls-1" d="M28.61,7.15H54.94v8.1H38.24v3.94h16.7v7.53H38.24v3.94h16.7v8.11H28.61Z"/><path class="cls-1" d="M56.56,7.15H72.35c10.41,0,14.09,7.79,14.09,15.76,0,9.7-5.07,15.86-16,15.86H56.56Zm9.62,23.51H70c6,0,6.87-4.91,6.87-7.88,0-2-.62-7.53-7.58-7.53H66.18Z"/><path class="cls-1" d="M100.27,26.58l-2.94-4.92-2.86,4.92h-7l6.69-10L87.67,7.09h7l2.61,4.71L100,7.09h7l-6.44,9.53,6.69,10Z"/><text class="cls-2" transform="translate(111.32 34.38) scale(0.99 1)">ElGuereo</text></g></g></svg>