<svg xmlns="http://www.w3.org/2000/svg" viewBox="0 0 10.69 136.98"><defs><style>.cls-1{fill:#fff;}</style></defs><g id="Capa_2" data-name="Capa 2"><g id="Capa_1-2" data-name="Capa 1"><g id="LINEAS"><path id="_2da_IZQ" data-name="2da IZQ" class="cls-1" d="M7.47,0H6.23l.06,94.8L0,102.44v8.48l6.3,8.67v9.72a3.75,3.75,0,0,0-2.21,1.09,3.85,3.85,0,1,0,5.45,5.45,3.85,3.85,0,0,0-2-6.51V119.19l-6.31-8.67v-7.63l6.29-7.65ZM5,131.27a2.63,2.63,0,0,1,1.46-.72h.79a2.54,2.54,0,0,1,1.45.72,2.63,2.63,0,0,1,0,3.71A2.62,2.62,0,0,1,5,131.27Z"/></g></g></g></svg>