<svg id="LOGO" xmlns="http://www.w3.org/2000/svg" xmlns:xlink="http://www.w3.org/1999/xlink" viewBox="0 0 1200 1200"><defs><style>.cls-1{fill:url(#Degradado_sin_nombre_5);}.cls-2{fill:#fff;}</style><linearGradient id="Degradado_sin_nombre_5" x1="163.95" y1="591.91" x2="1036.98" y2="591.91" gradientUnits="userSpaceOnUse"><stop offset="0" stop-color="#f70000"/><stop offset="1"/></linearGradient></defs><polygon id="X" class="cls-1" points="1036.98 1002.43 163.95 1002.43 462.91 589.4 166.85 181.39 438.12 181.39 598.79 401.67 758.23 181.39 1028.9 181.39 734.39 587.57 1036.98 1002.43"/><path id="GUEREO" class="cls-2" d="M821.72,990.29c.41-3.12-2.19-6.44,1.88-8.14,5.29-2.2,7.45-7.19,3.06-13-1.17-1.56-2.66-3.32-4.23-3.74-2.07-.56-2.72-1.45-2.69-3.91.09-8.12,0-16.25,0-24.37,0-13.9,0-27.82,0-42.18-1.34,0-2.68.06-4,.17a8.71,8.71,0,0,1-1.7.35,56.51,56.51,0,0,1-11.11.07c-3.87-.46-7.85.77-11.71,0a2.65,2.65,0,0,1-1.2.28,47.5,47.5,0,0,1-5.2-.22,3.52,3.52,0,0,1-.9-.24,1.26,1.26,0,0,1-.5.12c-8.23.08-16.48.41-24.68-.13a44.75,44.75,0,0,0-6.55,0,228.28,228.28,0,0,1-24.68.09c-2-.07-4-1.28-4-4.86.13-11.74,0-23.48.08-35.22.05-4.81.57-9.61.89-14.8h-7.08c-.12-1.61-.27-2.84-.29-4.06-.13-7.61-.32-15.21-.3-22.82,0-4.86-.68-9.9,1.7-14.6-2.39.35-3.07-1.07-3.05-3.71.1-9,0-18,.1-27a55.21,55.21,0,0,1,.94-6.94c-.65-4.06-1.29-8-1.92-12l-.58.09-1.23,10c-3.14-8.88-6-17.14-9-25.29-.7-1.9-2.09-3.43-3.16-5.13l-1.29.61V713.58l-.92,0V730l-2.82.47c-3.32,9.41-6.58,18.64-10.15,28.78-.56-4.06-1-6.95-1.47-10.68-1.2,3.84-1.91,13.15-1.87,16,.14,10.62.19,21.23.07,31.84,0,1.17-1.26,2.31-2.19,3.9a12.73,12.73,0,0,1,.8,3.45c0,11.35-.16,22.7-.19,34,0,2.31-.8,3.08-2.61,2.94-1.65-.13-3.32,0-4.43,0,.31,3.51.74,6.34.78,9.17.18,14.19.33,28.37.31,42.56,0,1.86-1,3.71-1.72,6.13,1.64,2.77,2.3,60.74.71,79.95,0,.12,0,.24,0,.36,0,1.92.27,3.58.39,5.45.17,2.56-1,5.09-3.07,5.89-1.41.54-2.8.23-4.24.15a3.34,3.34,0,0,1-.8-.16c-.08,0-.14,0-.22,0l-.17,0a2.22,2.22,0,0,1-.87-.1c-3.24-.57-4.41-3.55-4.34-7.66,0-2.75.13-5.43,0-8.19,0-1.13.1-2.54.16-3.92a21.8,21.8,0,0,1-.44-4.52c-.1-21.24-.07-42.49,0-63.73a16,16,0,0,1,.79-3.82c.57-2.18,2.14-4.8,1.6-6.41-1-2.87-1.48-5.11.11-7.72a2.16,2.16,0,0,0,0-1.71c-2.37-3.57-.63-6.46.87-9.5a3.63,3.63,0,0,0,0-2.51c-1.83-.91-3.92-1.16-5.58-2.34a7.88,7.88,0,0,1-3.11-4.47c-.37-2.07.42-4.44.73-6.82-.88-.8-4.59-.14-1.44-3.7a1.7,1.7,0,0,0,.12-1.06c-.37-3.68-.74-7.35-1.15-11-.13-1.15-.38-2.29-.57-3.43l-1,.12q-.33,7.65-.67,15.3l-.73-.12,1.44,3.07-2.71.68c.28,2.76.94,5.19.6,7.41-.22,1.51-1.84,2.71-2.83,4-.93-1.47-2.46-2.83-2.65-4.43-.27-2.21.47-4.6.8-7l-2.75-.91c.56-1.35,1.57-2.86,1.31-3.34-2.18-4-.59-8.44-1.16-12.59-.1-.74-.31-1.45-.48-2.18l-1,.05c-.29,6-.58,12-.88,18.37l-1.76.59c.29,3,.55,5.62.81,8.33H623.87c-.12-2.28-.22-4.21-.34-6.48h-11c-.19-1.55-.33-2.76-.49-4.06l-3.93-.53c0-3.65,0-7.12,0-10.59,0-2-.37-3.25-2.57-1.75V854l-3.91.47c-.15,1.44-.27,2.64-.45,4.34h-11c-.11,2.35-.2,4.18-.3,6.26H574.77c.41-2.92.78-5.58,1.16-8.31l-2.52-1.08c.46-1.41,1.16-2.53,1.11-3.6-.21-3.7-.64-7.39-1.06-11.08a29.5,29.5,0,0,0-.76-3.32l-.91.23c-.24,5.94-.49,11.89-.75,18.14l-1.9.65c.28,2.63.9,4.94.63,7.09-.21,1.59-1.6,2.95-2.46,4.42-1-1.45-2.63-2.75-2.87-4.36-.33-2.21.4-4.65.71-7.22l-2.79-.68c.54-1.43,1.59-3.21,1.31-3.62-2.17-3.09-.65-6.63-1.08-9.89-.21-1.56-.23-3.16-.33-4.82-.63.2-.81.21-.81.26-.61,5.06-2.76,10.91-1.37,15,1.6,4.7-1.56,2.94-2.18,4.18.47,1.44,1.29,2.78,1.22,4-.12,1.95-.38,4.51-1.43,5.61a13.69,13.69,0,0,1-6.12,3.47c-2,.55-2.87.92-1.08,3,3.68,4.22-.46,9.6,1.48,14.16.42,1-.43,2.71-.58,4.11a7.65,7.65,0,0,0,.12,2.53c.69,3,2.1,5.9,2.13,8.86.19,20.61.11,41.23.1,61.85,0,.05,0,.1,0,.15a4.69,4.69,0,0,1,0,1.08c0,.23,0,.47,0,.7A46.6,46.6,0,0,1,553.3,981a3.56,3.56,0,0,1-3.23,3c-2.88-.1-6.48.54-8.29-2.91-1.12-2.16-1-4.94-.92-7.52,0-1-.05-1.93-.06-2.86-.11-8.74,0-17.49,0-26.24s.18-17.75-.06-26.62c-.23-8.51.44-17,.22-25.51-.1-3.71.16-7.46-.12-11.24a63.33,63.33,0,0,1-.16-10.66,5,5,0,0,1-.24-2.36c.51-3.94.11-7.81.29-11.69h0c-.24-6.26.55-12.49.17-18.78-.21-3.38.81-6.87,1.3-10.5-4.86-5.06,0-13.84-4.8-20.32-.47,6-.88,11.19-1.37,17.44-.63-2-.94-3-1.28-4-1.76-5.08-3.55-10-8.15-12.55-1.47-.83-2.19-3.63-3.22-5.55-.34-.63-.54-1.36-.88-2-.6-1.09-1.75-2.08-1.81-3.19a63.83,63.83,0,0,1,.39-7.6l3.35-.49,0-.52-3.17-.59c-.23-1.64-.43-3.08-.63-4.52-.67,2.5,0,5.55-4,5.38l2.71.65c2.93,7.15-1.37,11.58-3.24,16.79a4.16,4.16,0,0,1-2.07,2.14c-3.85,1.76-5.53,5.71-7,9.88L505.12,823c-.7-5.33-.54-10.62-2.78-15.4-.68,3.89-.74,7.74-1.1,11.55-.21,2.3-.33,5.74-1.49,6.54-2.23,1.54-1.05,2.86-.82,4.5.45,3.16.89,6.34,1.14,9.53.09,1.13-.62,2.34-.59,3.5,0,1.7.63,3.38.62,5.07,0,6.18-.22,12.35-.36,18.66-.83-.65-1.72-1.27-2.54-2l-37.35-33.14c-4.44-3.93-4.9-5.43-3.64-11.88l3.77-1.7-3.6-2c-.56-1.38-1.05-2.57-1.53-3.77l-1.67,3.84-3.54,1.54,4,2.37c.59,7.82.57,7.8-4.59,12.38Q436.18,844,423.38,855.39c-4.46,4-8.94,7.86-13.95,12.26.49-2.41,1.12-4,1.08-5.61-.06-2.5-.66-5-.89-7.46-.55-5.79.78-11.54.12-17.42-.35-3.14.8-6.53,1.1-8.68a81.5,81.5,0,0,1-2.08-7.89c-.32-2.06.06-4.26-.16-6.35-.25-2.29-.84-4.53-1.28-6.79l-1.2.19c-.37,5.15-.75,10.29-1.19,16.35-.75-2-1.2-3.07-1.56-4.19-1.59-4.95-3.41-9.5-7.82-11.9-1.38-.74-2.2-3.1-3.19-4.79-.73-1.25-1.33-2.62-2-3.93l-.63.37V789.4l3.71-.45,0-.53-3.63-.66c-.13-1.62-.25-3.12-.36-4.63l-.35,0c-.12,1.55-.24,3.1-.36,4.72l-3.65.47V789l3.75.41v10.29l-.79-.4a38.41,38.41,0,0,1-1.77,3.58c-1.19,1.94-2.2,4.58-3.83,5.5-3.22,1.81-4.81,4.89-6.18,8.42-.79,2-1.51,4.16-2.41,6.66-.58-5.69-1.09-10.76-1.71-16.94-.88,1.47-1.42,2-1.47,2.51-.32,3.77-.46,7.56-.83,11.33-.19,1.91-.26,4.83-1.2,5.46-2.49,1.65-.84,3.3-.57,4.94.21,1.25.77,2.43.92,3.69.48,4.1-.71,8.12-.07,12.37,1,6.94-.77,14,.06,21.09.92,8-1.09,16,0,24a14.72,14.72,0,0,1-.34,3.25,22.24,22.24,0,0,0-.26,3.35c.1,1.57.6,3.13.6,4.7.05,21.75-.19,43.5.16,65.23a34.4,34.4,0,0,1-.44,6.11,49.19,49.19,0,0,1-1,11.38c0,2.56,0,5.12-.25,7.67-.08.91-.27,2-.45,3.07.1,1.92.21,3.84.42,5.75l464.21-.09v-12Zm-198.65,0a3.51,3.51,0,0,1-.49-.12h-4.12a9.42,9.42,0,0,1-1.78.24c-.23,0-.45.1-.68.11a7.19,7.19,0,0,1-2.07-.22h-.18c-.71,0-1.45,0-2.19.06l-.72,0a54.8,54.8,0,0,1-7,.1,9.88,9.88,0,0,1-3.16-.09c-3.76,0-7.51,0-11.26,0-.51,0-1-.56-1.52-.87.35-.65-1.09-12.28-1.1-13.31q-.18-23.61,0-47.23c0-.92.8-1.84,1.25-2.74.59-1.17,1.21-2.33,2-3.79l-2.84-.9c-.65-11.38,8.11-24.93,16.18-25,14.62-.22,23.24,8.83,23.52,24.9l-2.88.95c.71,1.41,1.38,2.65,2,3.93a7.66,7.66,0,0,1,1.15,2.9c.06,11,0,22,0,33.07.89,6.75.68,13.37.88,20.18C628.12,986.46,627.3,990.79,623.07,990.28Z"/></svg>