<svg id="Capa_1" data-name="Capa 1" xmlns="http://www.w3.org/2000/svg" viewBox="0 0 1200 800"><defs><style>.cls-1{fill:#fff;}</style></defs><path id="LATIR_OFICIAL" data-name="LATIR OFICIAL" class="cls-1" d="M206,580.33l132.7.08,3,9.66a1.07,1.07,0,0,0,2.07-.17l5.44-40.22,5.07,61.21a1.08,1.08,0,0,0,1,1,1.12,1.12,0,0,0,1.09-.93l5.55-46.41,4,24a1,1,0,0,0,1.07.88,1.06,1.06,0,0,0,1-.91l1.76-13.61,2.66,4.93a1.07,1.07,0,0,0,.95.56l72.13.05v-2.12l-71.5-.05-3.92-7.26a1.06,1.06,0,0,0-1.14-.54,1.09,1.09,0,0,0-.86.91l-1.27,9.71-4-24.3a1.06,1.06,0,0,0-2.1,0l-5.2,43.41-5-60.47a1.08,1.08,0,0,0-1-1h0a1.06,1.06,0,0,0-1.05.91l-6.09,45.13L340.48,579a1.07,1.07,0,0,0-1-.74l-132.84-.08Z"/><path id="_1ro_DER" data-name="1ro DER" class="cls-1" d="M235.3,625.81a5.27,5.27,0,1,0-9,3.71l.27.24-9.82,15.58-60.07-.11-9.22,15.26L-5,660.58v1.69l153.41-.09,9.22-15.26,60.05.11L228,630.66a5.15,5.15,0,0,0,2,.41,5.28,5.28,0,0,0,3.73-1.54A5.23,5.23,0,0,0,235.3,625.81Zm-2.73-2.53a3.55,3.55,0,0,1,1,2.53,3.52,3.52,0,0,1-1.05,2.52,3.58,3.58,0,0,1-6.1-2.54,3.52,3.52,0,0,1,1-2.52,3.56,3.56,0,0,1,5.06,0Z"/><rect id="cuadrado" class="cls-1" x="444.77" y="573.64" width="12.03" height="12.03" transform="translate(-276.89 481.21) rotate(-44.42)"/><circle class="cls-1" cx="206.71" cy="579.63" r="4.82"/><rect id="_2da_DER" data-name="2da DER" class="cls-1" x="-2.58" y="372.72" width="2.18" height="413.79" transform="translate(-581.1 578.13) rotate(-90)"/></svg>