<svg id="Capa_1" data-name="Capa 1" xmlns="http://www.w3.org/2000/svg" viewBox="0 0 1200 800"><defs><style>.cls-1{fill:#fff;}</style></defs><path id="_2da_IZQ" data-name="2da IZQ" class="cls-1" d="M1259.12,708.83v-3.15l-241.28.16-19.46-16-21.58,0-22.07,16H930a9.8,9.8,0,1,0-2.77,8.26,9.84,9.84,0,0,0,2.7-5.1l25.82,0,22.07-16h19.43l19.46,16ZM925,702.51a6.53,6.53,0,0,1,1.86,3.69v2a6.65,6.65,0,1,1-1.86-5.71Z"/><path id="_3ra_IZQ" data-name="3ra IZQ" class="cls-1" d="M764.49,667.3a9.82,9.82,0,1,0,16.78-6.89c-.16-.16-.33-.3-.49-.45l18.34-29,112,.34,17.22-28.43,284.15.16v-3.15l-285.93-.16-17.22,28.42-111.91-.34-19.27,30.49a9.82,9.82,0,0,0-13.62,9Zm5.09,4.73a6.66,6.66,0,1,1,4.71,2A6.62,6.62,0,0,1,769.58,672Z"/></svg>