<svg id="Capa_1" data-name="Capa 1" xmlns="http://www.w3.org/2000/svg" xmlns:xlink="http://www.w3.org/1999/xlink" viewBox="0 0 957.44 800.45"><defs><style>.cls-1,.cls-4{fill:none;}.cls-2{clip-path:url(#clip-path);}.cls-3{fill:#fff;}.cls-4{stroke:#fff;stroke-miterlimit:10;stroke-width:1.3px;}</style><clipPath id="clip-path"><rect class="cls-1" x="-1.9" y="-0.15" width="958.98" height="805.39"/></clipPath></defs><g class="cls-2"><g id="LINEAS"><g id="_1er_IZQ" data-name="1er IZQ"><circle id="circulo3" class="cls-3" cx="538.71" cy="327.68" r="4.43"/><rect id="linea_extra-2" data-name="linea extra-2" class="cls-3" x="542.57" y="327.04" width="105.23" height="1.46"/><rect id="linea_extra-1" data-name="linea extra-1" class="cls-3" x="765.39" y="326.63" width="310" height="1.46"/><path id="guereo" class="cls-4" d="M711.82,322l-.13,0h-1.05a1.63,1.63,0,0,1-.45.06.86.86,0,0,1-.17,0,1.91,1.91,0,0,1-.53-.05h-.78a13.37,13.37,0,0,1-1.79,0,2.69,2.69,0,0,1-.8,0h-2.86c-.13,0-.26-.15-.39-.22.09-.17-.28-3.13-.28-3.39,0-4,0-8,0-12a1.72,1.72,0,0,1,.32-.69c.15-.3.3-.6.5-1l-.73-.23c-.16-2.89,2.07-6.34,4.12-6.37,3.72-.05,5.91,2.25,6,6.34l-.74.24c.19.36.36.67.51,1a2,2,0,0,1,.29.74c0,2.8,0,5.6,0,8.41.22,1.71.17,3.39.22,5.13C713.1,321,712.89,322.12,711.82,322Zm-64.68,5.85c0-.95,0-2,0-3.14,0-4.52.07-4.62.1-8.31,0-6.08,0-9.07,0-15.36v-1.14a.22.22,0,0,1,0-.08c0-.42,0-1.44,0-2.87,0-3.08.06-5.56,0-6.11-.21-1.81.25-3.6,0-5.37-.16-1.07.14-2.1,0-3.14,0-.32-.18-.62-.23-.94s-.49-.84.15-1.25c.24-.16.25-.91.3-1.4.09-1,.13-1.92.21-2.87,0-.14.15-.27.38-.64.15,1.57.29,2.86.43,4.3.23-.63.41-1.17.61-1.69a3.87,3.87,0,0,1,1.57-2.14c.42-.23.68-.9,1-1.4a9.61,9.61,0,0,0,.45-.91l.2.1v-2.61l-.95-.1v-.16l.93-.12q0-.62.09-1.2h.09c0,.39.06.77.09,1.18l.93.16v.14l-.94.12v2.58l.16-.09c.18.33.32.68.51,1s.46,1,.81,1.23a4.76,4.76,0,0,1,2,3c.09.29.21.56.39,1.07.11-1.54.21-2.86.31-4.16l.3,0c.11.57.27,1.14.33,1.73s0,1.08,0,1.61a17.3,17.3,0,0,0,.53,2,8.26,8.26,0,0,0-.28,2.21c.16,1.5-.18,3,0,4.43.06.64.21,1.26.22,1.9a7.08,7.08,0,0,1-.27,1.43l3.55-3.12,6.52-5.79c1.31-1.17,1.32-1.16,1.17-3.15l-1-.6.9-.39.43-1c.12.31.25.61.39.95l.91.52-1,.43c-.32,1.65-.21,2,.92,3l9.49,8.44c.2.19.44.34.64.51,0-1.6.09-3.17.1-4.75,0-.43-.14-.86-.16-1.29s.17-.6.15-.88c-.06-.82-.17-1.63-.29-2.43-.06-.41-.35-.75.21-1.15.29-.2.32-1.07.38-1.65.09-1,.11-2,.28-3a13.14,13.14,0,0,1,.71,3.93l.45-1.26a4,4,0,0,1,1.79-2.52c.52-.24.35-.32.53-.54,1.22-1.46,1.41-3.81.6-4.32l-.1-.05c-.29-.14-.49-.17-.49-.19s.47.14.77,0,.35-.62.35-1a.49.49,0,0,1,.1.36.55.55,0,0,1-.25.38,3.69,3.69,0,0,0,.73.29,3.92,3.92,0,0,0,.41.07s0,.06,0,.07.12-.11.27-.35a1.44,1.44,0,0,1-.66.47,1.2,1.2,0,0,1-.46.06,17.87,17.87,0,0,0-.1,1.94c0,.28.31.54.46.81s.14.35.22.5c.27.49.45,1.21.82,1.41a5.08,5.08,0,0,1,2,3.07c0,.05,0,.09,0,.13.09.25.17.5.32,1,.13-1.58.24-2.91.36-4.43,1.22,1.65,0,3.88,1.22,5.17a13.34,13.34,0,0,0-.33,2.67c0,.24,0,.48,0,.72,0,1.35-.13,2.7-.07,4.05,0,1,.06,2-.08,3a1.25,1.25,0,0,0,.06.59,16.35,16.35,0,0,0,0,2.71c.07,1,0,1.92,0,2.87.06,2.16-.11,4.31-.06,6.48s0,4.51,0,6.77,0,4.45,0,6.67c0,.24,0,.49,0,.73a3.68,3.68,0,0,0,.23,1.91,1.24,1.24,0,0,0,.89.68,6.27,6.27,0,0,0,1.14.06h.08a.88.88,0,0,0,.81-.76,11.47,11.47,0,0,0,.12-3.65,1.09,1.09,0,0,0,0-.18,1.29,1.29,0,0,0,0-.28v0c0-5.24,0-10.49,0-15.73a10.23,10.23,0,0,0-.54-2.25,2,2,0,0,1,0-.64c0-.36.26-.8.16-1.05-.5-1.16.55-2.53-.38-3.61-.46-.52-.23-.61.28-.75a3.91,3.91,0,0,0,1.2-.58,2,2,0,0,0,.34-.3,2.48,2.48,0,0,0,.37-1.42,3.29,3.29,0,0,0-.31-1c.14-.28.77,0,.66-.68a2.31,2.31,0,0,0-.1-.37c-.36-1,.19-2.53.35-3.82l.2-.06c0,.43,0,.83.08,1.23.11.83-.26,1.72.28,2.51.08.11-.19.56-.33.92l.7.17c0,.08,0,.16,0,.24a5.72,5.72,0,0,0-.16,1.6,1.17,1.17,0,0,0,.27.53c.15.2.33.38.47.58a3.32,3.32,0,0,0,.62-1.13,3.89,3.89,0,0,0-.06-1.06c0-.24-.07-.48-.1-.73l.48-.18c0-.61.06-1.21.08-1.81,0-1,.08-1.88.12-2.8a1,1,0,0,0,.23-.06c.06.29.16.57.19.85l.12,1c.06.59.12,1.18.15,1.78a.93.93,0,0,1-.08.38c0,.17-.14.34-.2.53.25.11.46.21.63.27h0c-.1.7-.19,1.36-.3,2.1h3.84c0-.53.05-1,.09-1.6h2.79c.05-.43.08-.74.12-1.1l1-.12v-3.15c.56-.39.66-.07.66.43,0,.9,0,1.78,0,2.71l1,.13c0,.33.07.64.11,1H712c0,.27,0,.52,0,.76s0,.58,0,.89h3.79c-.06-.69-.13-1.37-.2-2.12l.45-.15c.08-1.62.15-3.15.23-4.67h.26c0,.18.1.36.13.55.14,1.05-.27,2.18.29,3.2.07.12-.2.51-.34.85l.7.23a7.47,7.47,0,0,0-.2,1.78c0,.41.43.76.67,1.13.25-.34.66-.64.72-1a7.49,7.49,0,0,0-.15-1.88l.69-.17-.37-.79.18,0c.07-1.29.13-2.59.18-3.88l.25,0c0,.29.11.58.14.87.11.94.19,1.87.29,2.81a.46.46,0,0,1,0,.27c-.81.9.14.74.36.94a7.21,7.21,0,0,0-.19,1.73,2.07,2.07,0,0,0,.8,1.14,2.63,2.63,0,0,0,.74.34,5.54,5.54,0,0,1,.68.25.92.92,0,0,1,0,.64c-.38.77-.82,1.51-.22,2.42a.54.54,0,0,1,0,.43,2.12,2.12,0,0,0,0,2c.13.41-.26,1.08-.4,1.63a4.18,4.18,0,0,0-.21,1c0,.32,0,.64,0,.95,0,5.08,0,10.16,0,15.25a4.74,4.74,0,0,0,.1,1.15c0,.35-.05.71,0,1,0,.7,0,1.38,0,2.08,0,1.05.28,1.81,1.1,1.95a.53.53,0,0,0,.22,0h.1l.21,0a2.46,2.46,0,0,0,1.08,0,1.45,1.45,0,0,0,.78-1.5,12.44,12.44,0,0,1-.1-1.38V319c.41-4.89.24-19.63-.18-20.33a6.66,6.66,0,0,0,.45-1.56q0-4.15-.06-8.33c0-.64,0-1.27,0-1.91,0-.19,0-.38,0-.58,0-.72-.12-1.44-.2-2.34.29,0,.71,0,1.13,0s.66-.16.67-.75c0-2.89,0-5.77,0-8.65a3.14,3.14,0,0,0-.21-.88c.24-.4.56-.69.56-1,0-2.7,0-5.4,0-8.1a19.41,19.41,0,0,1,.47-4.06c.13.95.24,1.68.38,2.72l2.58-7.32.72-.12v-4.16a.93.93,0,0,1,.24,0v4.1l.32-.15a7.62,7.62,0,0,1,.81,1.3c.77,2.08,1.49,4.17,2.28,6.43.13-1,.22-1.74.32-2.53l.15,0c.16,1,.32,2,.48,3.05a13.06,13.06,0,0,0-.24,1.77c0,2.28,0,4.57,0,6.85,0,.67.17,1,.78.95a7.82,7.82,0,0,0-.44,3.7c0,1.94,0,3.87.07,5.81,0,.31,0,.62.08,1h1.8c-.08,1.33-.21,2.54-.23,3.77,0,2.86,0,5.73,0,8.62,0,.11,0,.22,0,.33a1.66,1.66,0,0,0,.07.53s0,0,0,0a1,1,0,0,0,.94.69c1.13,0,2.26.07,3.4.07,1,0,1.91,0,2.87-.09l.41,0a10.48,10.48,0,0,1,1.25,0c.94.06,1.89.08,2.82.08,1.15,0,2.31,0,3.46-.05a.25.25,0,0,0,.12,0l.23.06c.31,0,.61,0,.9.05h.43a.51.51,0,0,0,.3-.07,7.72,7.72,0,0,0,2,0,5.57,5.57,0,0,1,1,0h.14a13.34,13.34,0,0,0,2.68,0,1.63,1.63,0,0,0,.43-.08c.34,0,.69,0,1-.05,0,3.66,0,7.19,0,10.73,0,2.07,0,4.13,0,6.19,0,.63.17.86.69,1a2.54,2.54,0,0,1,1.08.95c1.12,1.48.56,2.74-.78,3.31-1,.43-.38,1.27-.49,2.06h3.14c0,1.85.1,3.72.15,5.58V328"/></g></g></g></svg>