<svg id="Capa_1" data-name="Capa 1" xmlns="http://www.w3.org/2000/svg" viewBox="0 0 1080 570.75"><defs><style>.cls-1{fill:red;}.cls-2,.cls-3{fill:#fff;}.cls-3{font-size:91.52px;font-family:Helvetica;}</style></defs><path class="cls-1" d="M232.13,386.11l-6.19-8.92h5.9l3.32,4.91,3.27-4.91h5.72L238,386l7,10H239l-3.94-5.94L231.15,396h-5.8Z"/><path class="cls-2" d="M269.44,384.87H251V381h18.4Zm0,7.8H251v-3.9h18.4Z"/><path class="cls-2" d="M283.54,374.27h-5.18V370h5.18Zm-5.18,2.92h5.18V396h-5.18Z"/><path class="cls-2" d="M286.89,377.19h4.92v2.62h.11a6.72,6.72,0,0,1,5.75-3.13c5.5,0,6.89,3.09,6.89,7.76V396h-5.17V385.38c0-3.09-.92-4.62-3.32-4.62-2.81,0-4,1.56-4,5.39V396h-5.17Z"/><path class="cls-2" d="M321.21,393.62h-.08a6.24,6.24,0,0,1-5.72,2.91c-5.68,0-8.45-4.88-8.45-10.09s2.81-9.76,8.35-9.76a6.59,6.59,0,0,1,5.61,2.8h0V370h5.18v26h-4.92Zm-4.52-13.05c-3.39,0-4.55,2.92-4.55,6s1.34,6,4.55,6c3.42,0,4.44-3,4.44-6.08S320,380.57,316.69,380.57Z"/><path class="cls-2" d="M333.56,387.86c.14,3.28,1.75,4.77,4.62,4.77,2.08,0,3.76-1.27,4.09-2.44h4.55c-1.46,4.45-4.55,6.34-8.82,6.34-5.94,0-9.62-4.08-9.62-9.91,0-5.64,3.9-9.94,9.62-9.94,6.41,0,9.51,5.39,9.15,11.18Zm8.41-3.28c-.47-2.62-1.6-4-4.11-4a4.08,4.08,0,0,0-4.3,4Z"/><path class="cls-2" d="M349.48,377.19h4.92v2.4h.07a6.27,6.27,0,0,1,5.61-2.91c5.9,0,8.56,4.77,8.56,10.12,0,5-2.77,9.73-8.27,9.73a6.68,6.68,0,0,1-5.65-2.84h-.07v9h-5.17Zm14,9.47c0-3-1.2-6.09-4.52-6.09s-4.48,3-4.48,6.09,1.17,6,4.52,6S363.47,389.72,363.47,386.66Z"/><path class="cls-2" d="M375.27,387.86c.15,3.28,1.75,4.77,4.63,4.77,2.08,0,3.75-1.27,4.08-2.44h4.55c-1.45,4.45-4.55,6.34-8.81,6.34-5.94,0-9.62-4.08-9.62-9.91,0-5.64,3.9-9.94,9.62-9.94,6.41,0,9.51,5.39,9.14,11.18Zm8.42-3.28c-.48-2.62-1.6-4-4.12-4a4.08,4.08,0,0,0-4.3,4Z"/><path class="cls-2" d="M391.19,377.19h4.92v2.62h.11a6.72,6.72,0,0,1,5.76-3.13c5.5,0,6.88,3.09,6.88,7.76V396h-5.17V385.38c0-3.09-.91-4.62-3.32-4.62-2.8,0-4,1.56-4,5.39V396h-5.18Z"/><path class="cls-2" d="M425.51,393.62h-.07a6.25,6.25,0,0,1-5.72,2.91c-5.68,0-8.45-4.88-8.45-10.09s2.8-9.76,8.34-9.76a6.58,6.58,0,0,1,5.61,2.8h0V370h5.17v26h-4.92ZM421,380.57c-3.38,0-4.55,2.92-4.55,6s1.35,6,4.55,6c3.43,0,4.45-3,4.45-6.08S424.35,380.57,421,380.57Z"/><path class="cls-2" d="M437.86,387.86c.15,3.28,1.75,4.77,4.63,4.77,2.08,0,3.75-1.27,4.08-2.44h4.55c-1.45,4.45-4.55,6.34-8.81,6.34-5.94,0-9.62-4.08-9.62-9.91,0-5.64,3.9-9.94,9.62-9.94,6.41,0,9.51,5.39,9.14,11.18Zm8.42-3.28c-.48-2.62-1.6-4-4.12-4a4.08,4.08,0,0,0-4.3,4Z"/><path class="cls-2" d="M453.78,377.19h4.92v2.62h.11a6.72,6.72,0,0,1,5.76-3.13c5.5,0,6.88,3.09,6.88,7.76V396h-5.17V385.38c0-3.09-.91-4.62-3.32-4.62-2.8,0-4,1.56-4,5.39V396h-5.18Z"/><path class="cls-2" d="M481.22,377.19H485v3.46h-3.79V390c0,1.75.43,2.19,2.18,2.19A8.76,8.76,0,0,0,485,392v4a19.44,19.44,0,0,1-3,.18c-3.17,0-5.94-.73-5.94-4.48V380.65h-3.13v-3.46H476v-5.65h5.18Z"/><path class="cls-2" d="M486.9,370h5.17v26H486.9Z"/><path class="cls-2" d="M504.71,398.39c-1.13,3-2.91,4.26-6.48,4.26a30.62,30.62,0,0,1-3.17-.18v-4.26a27.21,27.21,0,0,0,3,.18c1.79-.18,2.37-2,1.79-3.53l-6.63-17.67h5.54L503,390.08h.07l4.12-12.89h5.35Z"/><path class="cls-2" d="M532.15,376.68c5.94,0,9.76,3.93,9.76,9.94s-3.82,9.91-9.76,9.91-9.73-3.93-9.73-9.91S526.25,376.68,532.15,376.68Zm0,15.95c3.53,0,4.59-3,4.59-6s-1.06-6.05-4.59-6.05-4.56,3-4.56,6.05S528.65,392.63,532.15,392.63Z"/><path class="cls-2" d="M543.81,377.19h4.91v3.49h.08a6.65,6.65,0,0,1,6-4,3.87,3.87,0,0,1,1.13.18v4.81a9.46,9.46,0,0,0-1.86-.18c-3.79,0-5.1,2.73-5.1,6V396h-5.17Z"/><path class="cls-2" d="M575.36,394.82c0,3.1-1.1,8.34-9.77,8.34-3.71,0-8.05-1.74-8.3-6h5.13c.48,1.93,2,2.58,3.86,2.58,2.88,0,4.19-2,4.16-4.66v-2.48h-.07a6.37,6.37,0,0,1-5.65,2.92c-5.65,0-8.05-4.3-8.05-9.48,0-4.88,2.8-9.32,8.08-9.32a5.86,5.86,0,0,1,5.62,3h.07v-2.51h4.92Zm-4.92-8.45c0-3.06-1.06-5.8-4.41-5.8-2.92,0-4.19,2.56-4.19,5.36s1,5.65,4.19,5.65C569,391.58,570.44,389.06,570.44,386.37Z"/><path class="cls-2" d="M577.83,383c.29-4.85,4.63-6.3,8.86-6.3,3.75,0,8.27.83,8.27,5.35v9.8a9.68,9.68,0,0,0,.65,4.19h-5.24a7.45,7.45,0,0,1-.37-1.82,8.64,8.64,0,0,1-6.34,2.33c-3.57,0-6.41-1.78-6.41-5.64,0-4.27,3.21-5.29,6.41-5.72s6.12-.37,6.12-2.48-1.53-2.55-3.35-2.55-3.24.8-3.42,2.84Zm11.95,3.82c-.87.77-2.69.81-4.3,1.1s-3.06.87-3.06,2.77,1.5,2.4,3.17,2.4c4,0,4.19-3.2,4.19-4.33Z"/><path class="cls-2" d="M598.23,377.19h4.92v2.62h.11a6.72,6.72,0,0,1,5.76-3.13c5.5,0,6.89,3.09,6.89,7.76V396h-5.18V385.38c0-3.09-.91-4.62-3.31-4.62-2.81,0-4,1.56-4,5.39V396h-5.18Z"/><path class="cls-2" d="M623.7,374.27h-5.17V370h5.17Zm-5.17,2.92h5.17V396h-5.17Z"/><path class="cls-2" d="M625.89,392.12l9.8-11h-9.07v-3.89H642.5v3.89l-9.8,11h10.49V396h-17.3Z"/><path class="cls-2" d="M649.5,387.86c.14,3.28,1.74,4.77,4.62,4.77,2.08,0,3.76-1.27,4.08-2.44h4.56c-1.46,4.45-4.56,6.34-8.82,6.34-5.94,0-9.62-4.08-9.62-9.91,0-5.64,3.9-9.94,9.62-9.94,6.41,0,9.51,5.39,9.15,11.18Zm8.41-3.28c-.47-2.62-1.6-4-4.12-4a4.08,4.08,0,0,0-4.29,4Z"/><path class="cls-2" d="M678.86,393.62h-.07a6.26,6.26,0,0,1-5.72,2.91c-5.69,0-8.46-4.88-8.46-10.09s2.81-9.76,8.35-9.76a6.58,6.58,0,0,1,5.61,2.8h0V370h5.18v26h-4.92Zm-4.52-13.05c-3.39,0-4.55,2.92-4.55,6s1.35,6,4.55,6c3.43,0,4.45-3,4.45-6.08S677.69,380.57,674.34,380.57Z"/><path class="cls-2" d="M702.65,374.82h-7.8V370h21.32v4.81h-7.8V396h-5.72Z"/><path class="cls-2" d="M718.42,370h19.46v4.81H724.14v5.57h12.61v4.45H724.14v6.37h14V396H718.42Z"/><path class="cls-2" d="M740.58,370H751.8c6.74,0,11.8,4.23,11.8,12.86,0,7.54-3.86,13.15-11.8,13.15H740.58Zm5.72,21.2h5.1c3.31,0,6.48-2,6.48-7.79,0-5.25-1.82-8.6-7.5-8.6H746.3Z"/><path class="cls-2" d="M780,387.86c.14,3.28,1.75,4.77,4.63,4.77,2.07,0,3.75-1.27,4.08-2.44h4.55c-1.46,4.45-4.55,6.34-8.82,6.34-5.94,0-9.62-4.08-9.62-9.91,0-5.64,3.9-9.94,9.62-9.94,6.42,0,9.51,5.39,9.15,11.18Zm8.41-3.28c-.47-2.62-1.6-4-4.11-4a4.08,4.08,0,0,0-4.3,4Z"/><path class="cls-2" d="M805.57,396h-5.76l-6.44-18.83h5.42l4,12.86h.07l4-12.86H812Z"/><path class="cls-2" d="M816.9,387.86c.15,3.28,1.75,4.77,4.63,4.77,2.07,0,3.75-1.27,4.08-2.44h4.55c-1.45,4.45-4.55,6.34-8.81,6.34-5.94,0-9.62-4.08-9.62-9.91,0-5.64,3.9-9.94,9.62-9.94,6.41,0,9.5,5.39,9.14,11.18Zm8.42-3.28c-.48-2.62-1.61-4-4.12-4a4.08,4.08,0,0,0-4.3,4Z"/><path class="cls-2" d="M832.82,377.19h4.92v2.62h.11a6.72,6.72,0,0,1,5.76-3.13c5.5,0,6.88,3.09,6.88,7.76V396h-5.17V385.38c0-3.09-.91-4.62-3.32-4.62-2.8,0-4,1.56-4,5.39V396h-5.18Z"/><path class="cls-2" d="M860.25,377.19H864v3.46h-3.79V390c0,1.75.44,2.19,2.19,2.19A8.58,8.58,0,0,0,864,392v4a19.24,19.24,0,0,1-3,.18c-3.17,0-5.94-.73-5.94-4.48V380.65H852v-3.46h3.13v-5.65h5.17Z"/><path class="cls-1" d="M244,300.28H223.77V281.75h62.75v18.53H266.27V354H244Z"/><path class="cls-1" d="M290,281.75H350.9v18.53H312.25v9H350.9V326.5H312.25v9h38.66V354H290Z"/><path class="cls-1" d="M354.64,281.75h36.55c24.08,0,32.59,17.82,32.59,36C423.78,340,412,354,386.84,354h-32.2Zm22.27,53.75h8.71c13.87,0,15.9-11.24,15.9-18,0-4.54-1.43-17.19-17.52-17.19h-7.09Z"/><path class="cls-1" d="M455.78,326.17,449,314.91l-6.63,11.26H426.05l15.49-22.77-14.92-21.79h16.32L449,292.38l6.21-10.77h16.32L456.61,303.4l15.49,22.77Z"/><text class="cls-3" transform="translate(481.35 344)">ElGuereo</text></svg>